<?xml version="1.0" standalone="no"?>
<!DOCTYPE svg PUBLIC "-//W3C//DTD SVG 1.1//EN" "http://www.w3.org/Graphics/SVG/1.1/DTD/svg11.dtd" >
<svg xmlns="http://www.w3.org/2000/svg" xmlns:xlink="http://www.w3.org/1999/xlink" version="1.1">
<metadata>
Created by FontForge 20170731 at Fri Jan  1 02:30:17 1904
 By Aleksey,,,
URW Software, Copyright 1992 by URW.
</metadata>
<defs>
<font id="HelveticaLightOblique" horiz-adv-x="1139" >
  <font-face 
    font-family="Helvetica-Light"
    font-weight="400"
    font-style="oblique"
    font-stretch="normal"
    units-per-em="2048"
    panose-1="2 11 5 0 0 0 0 0 0 0"
    ascent="1638"
    descent="-410"
    x-height="1065"
    cap-height="1475"
    bbox="-311 -440 2294 2005"
    underline-thickness="47"
    underline-position="-172"
    unicode-range="U+0020-F002"
  />
<missing-glyph horiz-adv-x="1536" 
d="M256 0v1280h1024v-1280h-1024zM1248 32v1216h-960v-1216h960z" />
    <glyph glyph-name=".notdef" horiz-adv-x="1536" 
d="M256 0v1280h1024v-1280h-1024zM1248 32v1216h-960v-1216h960z" />
    <glyph glyph-name=".null" horiz-adv-x="0" 
 />
    <glyph glyph-name="nonmarkingreturn" horiz-adv-x="0" 
 />
    <glyph glyph-name="space" unicode=" " horiz-adv-x="569" 
 />
    <glyph glyph-name="exclam" unicode="!" horiz-adv-x="682" 
d="M723 1475l-92 -433l-174 -671h-74l113 671l92 433h135zM459 207l-43 -207h-150l43 207h150z" />
    <glyph glyph-name="quotedbl" unicode="&#x22;" horiz-adv-x="569" 
d="M379 883h-100l106 592h139zM666 883h-103l107 592h139z" />
    <glyph glyph-name="numbersign" unicode="#" 
d="M864 508l-151 -434h-95l152 434h-250l-151 -434h-93l152 434h-264l33 94h264l86 246h-264l32 94h265l139 401h92l-139 -401h250l139 401h94l-141 -401h272l-33 -94h-272l-84 -246h270l-32 -94h-271zM889 848h-250l-86 -246h250z" />
    <glyph glyph-name="dollar" unicode="$" 
d="M866 1640h97l-39 -180q79 -4 133.5 -19t93.5 -44q53 -35 85 -94t32 -123q0 -55 -15 -119h-125q9 55 9 86q0 191 -236 205l-119 -557q106 -20 189 -56q92 -39 136 -104t44 -160q0 -116 -53.5 -219.5t-145.5 -173.5q-74 -57 -149.5 -82.5t-196.5 -32.5l-51 -246h-96l53 246
q-109 1 -191 41t-125.5 114.5t-43.5 174.5q0 55 16 139h127q-16 -79 -16 -133q0 -207 256 -231l131 622q-176 36 -257 109t-81 194q0 98 49 192.5t131 160.5q67 54 144 80t177 30zM692 817l115 539q-80 -3 -137 -24.5t-107 -67.5q-49 -46 -78.5 -109t-29.5 -125
q0 -56 29.5 -101.5t80.5 -70.5q49 -21 127 -41zM758 674l-129 -600q97 7 161.5 32t118.5 76q39 39 62 77.5t37 86t14 90.5q0 134 -129 191q-48 20 -135 47z" />
    <glyph glyph-name="percent" unicode="%" horiz-adv-x="1821" 
d="M1665 1430l-1108 -1430h-106l1105 1430h109zM1522 756q118 0 186 -65.5t68 -180.5q0 -98 -34 -207t-87 -178q-59 -76 -135 -114t-172 -38q-124 0 -191 64t-67 184q0 93 30.5 194.5t77.5 170.5q38 55 88 92.5t110.5 57.5t125.5 20zM1497 666q-61 0 -117.5 -33.5
t-93.5 -89.5q-32 -57 -56 -144.5t-24 -158.5q0 -88 43.5 -134.5t122.5 -46.5q62 0 118 34.5t91 96.5q34 56 56 140.5t22 152.5q0 183 -162 183zM780 1466q120 0 187 -63.5t67 -177.5q0 -99 -31.5 -202t-84.5 -175q-61 -83 -137.5 -122.5t-176.5 -39.5q-254 0 -254 258
q0 67 15 134.5t42.5 130t61.5 106.5q117 151 311 151zM758 1376q-65 0 -118 -28t-89 -84q-25 -40 -45.5 -95t-31.5 -110t-11 -105q0 -88 42 -134t124 -46q137 0 215 141q36 59 56 137t20 148q0 176 -162 176z" />
    <glyph glyph-name="ampersand" unicode="&#x26;" horiz-adv-x="1366" 
d="M1157 651h121q-19 -81 -66 -178.5t-98 -161.5l205 -311h-156l-135 207q-214 -236 -500 -236q-82 0 -152 22t-120.5 64.5t-76 99t-25.5 128.5q0 223 225 387q42 32 127 81.5t137 71.5q-27 38 -61 99q-64 114 -64 194q0 96 55 177t149 129.5t202 48.5q62 0 112.5 -16
t87 -46t55.5 -72.5t19 -93.5q0 -56 -21 -113t-60 -108.5t-95 -95.5q-78 -60 -211 -133l240 -383q74 118 106 239zM758 883l2 -4q148 70 230.5 158t82.5 175q0 68 -48.5 111t-125.5 43q-69 0 -128.5 -31t-94.5 -83t-35 -111t45 -146q15 -28 66 -104l4 -4zM969 295l-279 442
q-209 -101 -305 -201t-96 -217q0 -103 77.5 -171t198.5 -68q213 0 404 215z" />
    <glyph glyph-name="quotesingle" unicode="'" horiz-adv-x="455" 
d="M465 883h-100l106 592h139z" />
    <glyph glyph-name="parenleft" unicode="(" horiz-adv-x="682" 
d="M735 1475h101q-156 -186 -268.5 -404t-172 -450.5t-59.5 -448.5q0 -97 11.5 -195t34 -190t56.5 -182h-100q-127 322 -127 608q0 91 11 185.5t34.5 189t58 188t84.5 197.5q65 134 155 267t181 235z" />
    <glyph glyph-name="parenright" unicode=")" horiz-adv-x="682" 
d="M176 -395h-100q114 136 210.5 301t159.5 331t96 334.5t33 337.5q0 308 -102 566h102q68 -175 96.5 -315t28.5 -296q0 -377 -186 -758q-48 -94 -101.5 -180.5t-116 -172.5t-120.5 -148z" />
    <glyph glyph-name="asterisk" unicode="*" horiz-adv-x="797" 
d="M967 1229l-258 -82l104 -203l-74 -49l-108 209l-193 -207l-59 49l192 201l-219 82l43 78l219 -86l54 254h86l-56 -254l254 86z" />
    <glyph glyph-name="plus" unicode="+" horiz-adv-x="1352" 
d="M348 764h443l94 446h96l-96 -446h444l-20 -96h-443l-96 -447h-94l94 447h-442z" />
    <glyph glyph-name="comma" unicode="," horiz-adv-x="569" 
d="M432 213l-33 -154q-21 -104 -53 -171.5t-81 -109t-120 -65.5l19 86q38 16 61.5 40t41.5 62t32 99h-61l45 213h149z" />
    <glyph glyph-name="hyphen" unicode="-" horiz-adv-x="682" 
d="M729 604l-24 -119h-519l25 119h518z" />
    <glyph glyph-name="period" unicode="." horiz-adv-x="569" 
d="M406 221l-48 -221h-149l47 221h150z" />
    <glyph glyph-name="slash" unicode="/" horiz-adv-x="569" 
d="M905 1513l-844 -1697h-100l842 1697h102z" />
    <glyph glyph-name="zero" unicode="0" 
d="M883 1462q177 0 271.5 -108.5t94.5 -311.5q0 -138 -39 -326.5t-96 -322.5q-60 -138 -143 -233t-186 -143t-224 -48q-181 0 -277 105t-96 303q0 94 20.5 218.5t54 245t75.5 214.5q89 201 227 304t318 103zM858 1350q-136 0 -235.5 -86t-169.5 -263q-40 -103 -67.5 -207
t-43.5 -210t-16 -187q0 -154 66 -234.5t194 -80.5q131 0 237 92.5t174 265.5q32 83 58.5 188.5t42.5 211t16 180.5q0 162 -66 246t-190 84z" />
    <glyph glyph-name="one" unicode="1" 
d="M1057 1446l-307 -1446h-136l230 1077h-56h-141h-117h-55l21 101q102 3 163 10t100.5 22.5t74.5 44.5q36 32 61.5 72.5t58.5 118.5h103z" />
    <glyph glyph-name="two" unicode="2" 
d="M1079 117l-24 -117h-957q21 72 49 131.5t63.5 108t84.5 94.5q58 58 168 133q56 36 123 74q40 25 96 57q112 65 170.5 102.5t104.5 74.5t79 75q111 123 111 274q0 68 -32 119t-92.5 79t-139.5 28q-93 0 -174.5 -39.5t-139.5 -114.5q-69 -85 -106 -248h-127
q25 122 76.5 218t125.5 162t169 100t206 34q174 0 271.5 -82t97.5 -231q0 -73 -21 -142t-64 -135.5t-101 -121.5q-84 -77 -193 -146q-67 -45 -225 -133q-126 -72 -189 -113.5t-104 -81.5q-76 -70 -115 -159h29h43h737z" />
    <glyph glyph-name="three" unicode="3" 
d="M436 987h-121q28 115 79.5 203.5t122.5 148t162.5 91.5t201.5 32q109 0 190.5 -35t124.5 -99.5t43 -153.5q0 -95 -39.5 -177.5t-112 -141.5t-163.5 -81q225 -50 225 -264q0 -93 -42 -191.5t-116 -173.5q-53 -56 -122.5 -96t-149.5 -60t-166 -20q-125 0 -216 41
t-139 120.5t-48 184.5q0 70 20 150h125q-14 -66 -14 -113q0 -125 80 -197.5t219 -72.5q114 0 213.5 54t159 146t59.5 197q0 232 -312 232q-47 0 -75 -2l22 108h60q55 0 105 8.5t90 26t77 45.5q58 43 91.5 110.5t33.5 135.5q0 97 -66.5 152t-185.5 55q-105 0 -187.5 -41.5
t-140.5 -122.5t-88 -199z" />
    <glyph glyph-name="four" unicode="4" 
d="M1163 463l-22 -109h-209l-76 -354h-135l74 354h-645l26 123l877 969h110l-209 -983h209zM819 463l166 786l-706 -786h540z" />
    <glyph glyph-name="five" unicode="5" 
d="M1270 1430l-25 -117h-618l-209 -498q87 77 172.5 111.5t183.5 34.5q87 0 155.5 -24.5t118 -73.5t75.5 -117.5t26 -153.5q0 -136 -60.5 -262.5t-168.5 -216.5q-164 -144 -381 -144q-116 0 -205 42t-136.5 120.5t-47.5 183.5q0 47 10 103h127q-6 -46 -6 -72
q0 -60 19.5 -110t58 -86t90.5 -54t116 -18q116 0 219.5 66.5t165.5 177.5t62 237q0 89 -35 154t-99 100t-151 35q-204 0 -356 -168l-111 6l299 744h711z" />
    <glyph glyph-name="six" unicode="6" 
d="M1249 1081h-129q2 15 2 37q0 105 -66 168.5t-175 63.5q-262 0 -416 -322q-34 -72 -57 -140t-56 -198q83 122 198 187t251 65q105 0 189 -44.5t129.5 -124t45.5 -183.5q0 -122 -46.5 -235.5t-130.5 -201t-191 -136t-224 -48.5q-175 0 -279 107.5t-104 288.5
q0 198 66 431.5t162 379.5q97 144 219.5 215t269.5 71q105 0 183 -38.5t119.5 -109.5t41.5 -171q0 -39 -2 -62zM756 829q-116 0 -215 -63t-159 -169.5t-60 -227.5q0 -130 74.5 -208.5t199.5 -78.5q113 0 213 65t159.5 174.5t59.5 233.5q0 82 -33.5 145t-95.5 96t-143 33z
" />
    <glyph glyph-name="seven" unicode="7" 
d="M1343 1430l-24 -119q-290 -243 -502 -557q-126 -187 -210 -363t-148 -391h-140q23 84 50.5 159.5t69 165.5t86 171t104.5 176q72 115 141 204t166 193q66 72 102 106.5t121 108.5q5 5 12 11l21 18h-793l25 117h919z" />
    <glyph glyph-name="eight" unicode="8" 
d="M535 780q-79 26 -121.5 84t-42.5 142q0 128 66.5 232t185 164t258.5 60q166 0 259 -74.5t93 -207.5q0 -92 -36.5 -172t-103.5 -139t-155 -89q77 -21 119 -55q43 -36 67.5 -91t24.5 -116q0 -95 -38 -192.5t-105 -173.5q-165 -183 -445 -183q-122 0 -211.5 39t-136.5 114
t-47 179q0 116 46.5 216.5t131 169t191.5 93.5zM856 1350q-102 0 -183 -42.5t-127 -118.5t-46 -169q0 -89 66 -141t179 -52q76 0 142 24.5t113.5 68.5t73.5 104t26 131q0 92 -64.5 143.5t-179.5 51.5zM719 725q-118 0 -213 -52t-150 -144t-55 -203q0 -112 78 -178t209 -66
q200 0 317 135q107 120 107 268q0 113 -77 176.5t-216 63.5z" />
    <glyph glyph-name="nine" unicode="9" 
d="M188 346h125q-2 -14 -2 -31q0 -105 72 -169t186 -64q145 0 258.5 101.5t188.5 295.5q32 87 59 195q1 8 5 22.5t14 59.5q-175 -267 -451 -267q-109 0 -193.5 44.5t-129 126t-44.5 188.5q0 161 81 302.5t219 226.5t294 85q123 0 208 -48t129 -140.5t44 -224.5
q0 -136 -39 -311.5t-98 -315.5q-59 -142 -147 -244.5t-196 -155.5t-230 -53q-105 0 -186 39.5t-126 111t-45 165.5q0 13 4 61zM844 1350q-112 0 -211.5 -65t-159 -173.5t-59.5 -230.5q0 -129 72 -204t196 -75q114 0 214.5 64.5t160 171.5t59.5 229q0 85 -34 149t-95 99
t-143 35z" />
    <glyph glyph-name="colon" unicode=":" horiz-adv-x="569" 
d="M406 221l-48 -221h-149l47 221h150zM586 1065l-47 -221h-150l47 221h150z" />
    <glyph glyph-name="semicolon" unicode=";" horiz-adv-x="569" 
d="M432 213l-33 -154q-21 -104 -53 -171.5t-81 -109t-120 -65.5l19 86q38 16 61.5 40t41.5 62t32 99h-61l45 213h149zM614 1065l-47 -221h-149l47 221h149z" />
    <glyph glyph-name="less" unicode="&#x3c;" horiz-adv-x="1352" 
d="M1415 1243l-29 -139l-878 -365l723 -364l-29 -137l-856 442l27 121z" />
    <glyph glyph-name="equal" unicode="=" horiz-adv-x="1352" 
d="M381 922h981l-21 -97h-981zM313 604h981l-20 -96h-981z" />
    <glyph glyph-name="greater" unicode="&#x3e;" horiz-adv-x="1352" 
d="M252 238l29 139l878 364l-723 363l29 139l856 -442l-27 -123z" />
    <glyph glyph-name="question" unicode="?" horiz-adv-x="1024" 
d="M418 1018h-123q25 100 56.5 168.5t80.5 128.5q80 92 189 141t233 49q166 0 264.5 -80t98.5 -215q0 -78 -29 -154.5t-82 -140.5q-28 -34 -50.5 -55.5t-74 -63.5t-115.5 -91q-73 -56 -109 -96.5t-55.5 -92.5t-39.5 -149h-123q18 89 37 142.5t45 96.5q36 56 118 127
q6 5 76 62l33 26l35 29q196 156 196 326q0 98 -68.5 156.5t-183.5 58.5q-191 0 -309 -152q-35 -44 -57 -90.5t-43 -130.5zM639 207l-45 -207h-150l45 207h150z" />
    <glyph glyph-name="at" unicode="@" horiz-adv-x="1638" 
d="M1513 373h78q-48 -77 -98 -128t-129 -106q-253 -174 -526 -174q-177 0 -318 78t-220 217t-79 315q0 181 78.5 349t217 301t315.5 208.5t362 75.5q121 0 224.5 -38t179 -104.5t117.5 -158t42 -196.5q0 -83 -20 -164.5t-60 -154.5t-97.5 -136.5t-129.5 -112.5
q-171 -118 -313 -118q-57 0 -93 30.5t-36 77.5v19q-79 -69 -143.5 -97t-133.5 -28q-82 0 -133 54.5t-51 141.5q0 52 16.5 113t47.5 123.5t77 122.5q94 125 203 194.5t211 69.5q75 0 119 -36.5t59 -109.5l63 111h101l-301 -545q-43 -79 -43 -121q0 -24 20.5 -39.5t50.5 -15.5
q124 0 265 115q120 96 182.5 220t62.5 267q0 95 -38 176.5t-106 142.5t-160 94.5t-197 33.5q-170 0 -330 -69t-284.5 -189.5t-195.5 -275t-71 -320.5q0 -156 71.5 -282.5t198 -196.5t285.5 -70q184 0 363.5 92t295.5 244zM1081 649l82 148q34 57 48 96t14 74q0 33 -15 59
t-41 41.5t-57 15.5q-70 0 -152.5 -54.5t-152.5 -149.5q-66 -88 -109 -191.5t-43 -173.5q0 -55 30 -88t81 -33q89 0 178 76q34 28 67.5 72.5t69.5 107.5z" />
    <glyph glyph-name="A" unicode="A" horiz-adv-x="1366" 
d="M1075 1479l258 -1479h-145l-82 465h-655l-275 -465h-145l893 1479h151zM1094 578l-125 768l-453 -768h578z" />
    <glyph glyph-name="B" unicode="B" horiz-adv-x="1366" 
d="M479 1475h533q97 0 158.5 -9t107.5 -30q79 -39 118.5 -102.5t39.5 -149.5q0 -94 -43 -178.5t-119 -144t-170 -81.5q78 -16 119 -41q39 -21 68 -56.5t44 -79t15 -93.5q0 -83 -30 -161t-85.5 -145.5t-130.5 -113.5q-77 -48 -164.5 -69t-206.5 -21h-567zM592 1354l-113 -533
h330q183 0 264 29q99 37 159 119t60 182q0 122 -108 172q-63 31 -226 31h-366zM455 709l-125 -588h377q134 0 218 19.5t144 66.5q44 35 74.5 80t47.5 97t17 103q0 73 -40.5 124.5t-112.5 70.5q-93 27 -234 27h-366z" />
    <glyph glyph-name="C" unicode="C" horiz-adv-x="1479" 
d="M1356 565h137q-39 -134 -113.5 -247.5t-170 -190.5t-215 -119.5t-246.5 -42.5q-158 0 -276 65t-180.5 187.5t-62.5 288.5q0 99 16.5 192t52.5 191t82.5 178.5t108.5 153.5q249 288 601 288q236 0 366 -133q57 -57 89 -134t32 -157q0 -3 -4 -53h-137q0 108 -45.5 189
t-130.5 124.5t-201 43.5q-105 0 -200 -35.5t-177 -105.5t-147 -169q-76 -113 -120 -258t-44 -289q0 -136 48.5 -238t141 -155t215.5 -53q135 0 248 56t197 163.5t135 259.5z" />
    <glyph glyph-name="D" unicode="D" horiz-adv-x="1479" 
d="M479 1475h531q141 0 235.5 -27t163.5 -88q147 -135 147 -391q0 -85 -18 -180.5t-50 -189.5t-75 -173q-63 -119 -162.5 -217t-208.5 -148q-131 -61 -333 -61h-543zM592 1354l-262 -1233h370q174 0 278 39t196 137q113 117 176 301q30 84 48.5 184t18.5 176
q0 92 -29.5 169.5t-80.5 125.5q-55 52 -132.5 76.5t-191.5 24.5h-391z" />
    <glyph glyph-name="E" unicode="E" horiz-adv-x="1251" 
d="M1473 1475l-27 -121h-854l-113 -531h799l-25 -121h-798l-125 -581h864l-27 -121h-1001l313 1475h994z" />
    <glyph glyph-name="F" unicode="F" 
d="M1415 1475l-26 -121h-811l-113 -531h725l-27 -121h-723l-149 -702h-139l313 1475h950z" />
    <glyph glyph-name="G" unicode="G" horiz-adv-x="1593" 
d="M1583 750l-160 -750h-92l29 274q-49 -75 -109.5 -130t-138.5 -97.5t-158 -62t-170 -19.5q-167 0 -289.5 67t-188.5 193t-66 295q0 92 18 184.5t54.5 188t83.5 175t108 149.5q125 144 281 218t335 74q254 0 389 -147q55 -60 84 -135t29 -156q0 -29 -2 -51h-135v20
q0 69 -28.5 137t-76.5 113q-103 99 -284 99q-162 0 -303.5 -78.5t-241.5 -223.5q-50 -73 -88.5 -167t-60 -192t-21.5 -191q0 -140 53 -241.5t151.5 -155.5t231.5 -54q115 0 216 37.5t182 109.5t138 174.5t83 227.5h-502l24 115h625z" />
    <glyph glyph-name="H" unicode="H" horiz-adv-x="1479" 
d="M1628 1475l-313 -1475h-139l151 713h-872l-152 -713h-139l313 1475h139l-137 -641h875l135 641h139z" />
    <glyph glyph-name="I" unicode="I" horiz-adv-x="569" 
d="M668 1475l-314 -1475h-139l313 1475h140z" />
    <glyph glyph-name="J" unicode="J" horiz-adv-x="1024" 
d="M1163 1475l-225 -1053q-27 -131 -55 -198.5t-78 -123.5q-129 -141 -365 -141q-161 0 -245 72.5t-84 212.5q0 88 34 233h136q-31 -134 -31 -207q0 -94 55 -142t162 -48q147 0 235 100q33 39 56.5 101t44.5 159l221 1035h139z" />
    <glyph glyph-name="K" unicode="K" horiz-adv-x="1366" 
d="M1583 1475l-725 -596l471 -879h-174l-412 782l-319 -258l-111 -524h-139l313 1475h140l-172 -809l975 809h153z" />
    <glyph glyph-name="L" unicode="L" 
d="M1122 121l-26 -121h-930l313 1475h139l-288 -1354h792z" />
    <glyph glyph-name="M" unicode="M" horiz-adv-x="1706" 
d="M1860 1475l-314 -1475h-139l283 1329l-770 -1329h-132l-206 1329l-283 -1329h-139l313 1475h215l205 -1301l754 1301h213z" />
    <glyph glyph-name="N" unicode="N" horiz-adv-x="1479" 
d="M1628 1475l-313 -1475h-168l-569 1307l-277 -1307h-139l313 1475h168l569 -1301l277 1301h139z" />
    <glyph glyph-name="O" unicode="O" horiz-adv-x="1593" 
d="M1122 1509q121 0 221 -38.5t172 -112t110 -177t38 -231.5q0 -262 -118.5 -490.5t-320.5 -361.5t-436 -133q-167 0 -290 67t-189.5 191t-66.5 293q0 97 18 193.5t52.5 191.5t82 175.5t107.5 146.5q126 140 284.5 213t335.5 73zM1094 1389q-193 0 -357 -114t-259 -310
t-95 -428q0 -135 53 -238t149 -158t226 -55q192 0 356 114t259.5 307.5t95.5 420.5q0 140 -52.5 244.5t-150.5 160.5t-225 56z" />
    <glyph glyph-name="P" unicode="P" horiz-adv-x="1251" 
d="M473 1475h520q199 0 285 -52q67 -38 103 -104t36 -148q0 -125 -56 -242.5t-151 -189.5q-74 -58 -164.5 -84t-216.5 -26h-397l-133 -629h-139zM586 1354l-129 -604h360q122 0 195 21.5t133 72.5t94.5 126.5t34.5 157.5q0 153 -131 203q-28 12 -73 17.5t-132 5.5h-352z" />
    <glyph glyph-name="Q" unicode="Q" horiz-adv-x="1593" 
d="M1464 -6l-90 -90l-192 178q-73 -53 -183.5 -85t-218.5 -32q-122 0 -225.5 39t-174.5 111t-110 174.5t-39 228.5q0 129 32.5 258t94.5 247.5t142 205.5q256 280 608 280q125 0 225.5 -38t172.5 -111.5t109.5 -176.5t37.5 -231q0 -148 -44.5 -298.5t-127 -279.5
t-191.5 -220zM1024 401l180 -168q98 89 167.5 201t105.5 239t36 263q0 134 -53.5 237.5t-152 159.5t-226.5 56q-142 0 -271.5 -66.5t-228.5 -186t-153.5 -272.5t-54.5 -325q0 -138 53 -241t152 -157.5t233 -54.5q80 0 149 20t134 60l-162 145z" />
    <glyph glyph-name="R" unicode="R" horiz-adv-x="1366" 
d="M477 1475h576q168 0 258 -48q46 -24 78 -62t48.5 -85t16.5 -100q0 -114 -46 -211t-132 -163.5t-197 -92.5q197 -35 197 -213q0 -43 -10 -121l-19 -129q-16 -106 -16 -154q0 -56 22 -96h-157q-11 20 -11 66q0 35 17 137q31 173 31 237q0 83 -31 130t-102 68t-195 21h-363
l-139 -659h-139zM590 1354l-123 -582h344q144 0 227.5 21t145.5 73q40 32 68 77t43.5 95.5t15.5 104.5q0 69 -38.5 119t-105.5 71q-57 21 -184 21h-393z" />
    <glyph glyph-name="S" unicode="S" horiz-adv-x="1251" 
d="M1335 1051h-135q6 54 6 82q0 126 -78.5 193t-226.5 67q-176 0 -289.5 -94.5t-113.5 -243.5q0 -55 26 -93.5t80 -66.5q58 -28 125 -43l27 -8l28 -6l29 -9q117 -28 191 -51q251 -78 251 -291q0 -72 -24 -143.5t-69.5 -135.5t-108.5 -114q-166 -129 -422 -129
q-221 0 -339 99t-118 284q0 66 16 139h138q-13 -68 -13 -120q0 -136 91 -209.5t258 -73.5q219 0 340 121q51 51 79.5 117.5t28.5 128.5q0 69 -44.5 117.5t-139.5 80.5q-46 16 -127 39q-45 13 -60 17l-30 8q-126 34 -173.5 52.5t-91.5 49.5q-94 67 -94 199q0 101 49 200.5
t134 169.5q158 125 399 125q129 0 222 -40.5t142.5 -118.5t49.5 -185q0 -56 -13 -114z" />
    <glyph glyph-name="T" unicode="T" 
d="M1419 1475l-26 -121h-467l-287 -1354h-139l286 1354h-467l27 121h1073z" />
    <glyph glyph-name="U" unicode="U" horiz-adv-x="1479" 
d="M1624 1475l-188 -883q-20 -94 -36 -148t-36 -98q-42 -94 -104 -164t-140.5 -118.5t-174 -73.5t-206.5 -25q-153 0 -259.5 45.5t-162 132.5t-55.5 211q0 98 31 242l188 879h137l-186 -885q-29 -136 -29 -209q0 -148 91 -222.5t270 -74.5q256 0 391 160q48 57 81.5 139.5
t59.5 208.5l189 883h139z" />
    <glyph glyph-name="V" unicode="V" horiz-adv-x="1251" 
d="M1528 1475l-823 -1475h-154l-201 1475h146l172 -1309l716 1309h144z" />
    <glyph glyph-name="W" unicode="W" horiz-adv-x="1821" 
d="M2105 1475l-694 -1475h-160l-59 1331l-629 -1331h-160l-61 1475h143l41 -1311l619 1311h155l64 -1311l598 1311h143z" />
    <glyph glyph-name="X" unicode="X" horiz-adv-x="1251" 
d="M1499 1475l-633 -715l346 -760h-161l-287 655l-574 -655h-153l670 760l-326 715h160l266 -619l543 619h149z" />
    <glyph glyph-name="Y" unicode="Y" horiz-adv-x="1251" 
d="M1538 1475l-715 -865l-129 -610h-139l131 610l-348 865h147l299 -762l607 762h147z" />
    <glyph glyph-name="Z" unicode="Z" horiz-adv-x="1251" 
d="M1479 1475l-25 -123l-1210 -1231h968l-26 -121h-1123l27 125l1208 1229h-880l24 121h1037z" />
    <glyph glyph-name="bracketleft" unicode="[" horiz-adv-x="682" 
d="M844 1475l-23 -103h-209l-354 -1665h211l-23 -102h-331l397 1870h332z" />
    <glyph glyph-name="backslash" unicode="\" horiz-adv-x="569" 
d="M322 1513h100l121 -1697h-101z" />
    <glyph glyph-name="bracketright" unicode="]" horiz-adv-x="682" 
d="M68 -395l22 102h211l354 1665h-213l23 103h332l-398 -1870h-331z" />
    <glyph glyph-name="asciicircum" unicode="^" horiz-adv-x="1352" 
d="M516 840h-133l528 637h158l256 -637h-135l-221 540z" />
    <glyph glyph-name="underscore" unicode="_" horiz-adv-x="1024" 
d="M-35 -164h1024l-20 -96h-1024z" />
    <glyph glyph-name="grave" unicode="`" horiz-adv-x="682" 
d="M551 1518l151 -293h-102l-213 293h164z" />
    <glyph glyph-name="a" unicode="a" 
d="M1116 109l-20 -101q-52 -16 -109 -16q-108 0 -108 100q0 35 12 94q-98 -114 -207 -165.5t-248 -51.5q-94 0 -159.5 27t-99.5 80.5t-34 126.5q0 94 51 181t134 134q103 57 243 76q9 2 11 3t12.5 2t73 7t137.5 12q81 8 125.5 30.5t64 68t19.5 121.5q0 70 -63.5 109.5
t-176.5 39.5q-92 0 -161 -26.5t-115.5 -82.5t-73.5 -143h-123q44 173 176.5 267t331.5 94q106 0 182 -26t116 -75.5t40 -117.5q0 -45 -19 -134q0 -4 -71 -331q-26 -124 -43 -215q-8 -37 -8 -50q0 -47 57 -47q25 0 53 9zM932 408l37 172q-45 -32 -115 -45q-27 -7 -84 -15
l-39 -4l-39 -6l-37 -4q-136 -18 -210.5 -47.5t-114.5 -79.5q-51 -63 -51 -137q0 -79 55.5 -122.5t157.5 -43.5q105 0 198.5 42t157 118t84.5 172z" />
    <glyph glyph-name="b" unicode="b" horiz-adv-x="1251" 
d="M604 1475l-129 -609q71 110 181.5 170t240.5 60q115 0 199 -46t129 -133t45 -202q0 -149 -51.5 -294.5t-137.5 -246.5q-87 -103 -195.5 -154t-232.5 -51q-92 0 -160.5 27t-109.5 80t-55 133l-45 -209h-121l313 1475h129zM860 987q-71 0 -136.5 -24t-122 -69.5
t-101.5 -111.5q-53 -80 -84 -188.5t-31 -212.5q0 -141 75.5 -222t205.5 -81q127 0 235.5 81.5t172 221t63.5 305.5q0 92 -33 160.5t-95 104.5t-149 36z" />
    <glyph glyph-name="c" unicode="c" 
d="M991 381h129q-32 -93 -86 -170.5t-123 -131t-154.5 -82t-176.5 -28.5q-118 0 -207.5 47.5t-137 137t-47.5 206.5q0 136 48.5 274t132.5 243q59 71 131.5 119.5t157 74t169.5 25.5q110 0 192 -37.5t126.5 -108t44.5 -162.5q0 -13 -4 -59h-129v19q0 114 -65 177.5
t-185 63.5q-105 0 -197 -49t-159 -143q-59 -81 -94 -192t-35 -220q0 -96 33 -165t95.5 -105.5t147.5 -36.5q134 0 238 80t155 223z" />
    <glyph glyph-name="d" unicode="d" horiz-adv-x="1251" 
d="M1403 1475l-313 -1475h-121l45 211q-73 -116 -183.5 -179t-240.5 -63q-118 0 -204 45.5t-131.5 133.5t-45.5 206q0 144 51.5 293t136.5 246q175 203 422 203q269 0 328 -228l129 607h127zM811 987q-95 0 -180.5 -45.5t-151.5 -130.5t-101.5 -194.5t-35.5 -235.5
q0 -95 33 -163t94 -104t149 -36q74 0 143.5 26t127.5 76.5t102 122.5q29 45 53.5 112.5t38 141t13.5 133.5q0 67 -19.5 122t-57 94t-90 60t-118.5 21z" />
    <glyph glyph-name="e" unicode="e" 
d="M985 350h125q-75 -182 -212.5 -281.5t-315.5 -99.5q-124 0 -213.5 46t-136 134t-46.5 211q0 146 50 281t138 238t200.5 160t236.5 57q85 0 153 -27t116.5 -78.5t74 -122.5t25.5 -159q0 -56 -6.5 -102.5t-20.5 -106.5h-823q-17 -97 -17 -142q0 -49 17.5 -99.5t46.5 -88.5
q68 -92 229 -92q125 0 222 70t157 202zM352 608h695q10 68 10 107q0 120 -76 196t-195 76q-149 0 -260.5 -97t-173.5 -282z" />
    <glyph glyph-name="f" unicode="f" horiz-adv-x="569" 
d="M840 1479l-23 -111q-53 6 -76 6q-93 0 -127 -63q-22 -40 -45 -140l-22 -106h182l-22 -109h-183l-202 -956h-129l202 956h-151l22 109h154l18 92q23 102 39.5 146.5t44.5 80.5q43 52 99 76.5t133 24.5q33 0 86 -6z" />
    <glyph glyph-name="g" unicode="g" horiz-adv-x="1251" 
d="M1317 1065l-205 -963q-25 -121 -55 -195t-80 -134q-77 -94 -195.5 -142.5t-267.5 -48.5q-116 0 -202.5 32t-132.5 91.5t-46 138.5q0 14 4 60h129v-29q0 -88 71.5 -138t201.5 -50q96 0 167.5 22.5t123 67.5t89 119.5t58.5 175.5l39 176q-60 -83 -122.5 -133t-137.5 -75.5
t-162 -25.5q-119 0 -205 44.5t-131 129t-45 197.5q0 133 48.5 270.5t131.5 233.5q84 97 199.5 152t238.5 55q127 0 205.5 -56.5t116.5 -173.5l43 199h121zM817 987q-234 0 -366 -213q-48 -78 -75.5 -171.5t-27.5 -176.5q0 -93 33 -161.5t95 -105t149 -36.5q73 0 143.5 26.5
t127.5 74.5t97 114q50 82 76.5 172.5t26.5 175.5q0 91 -33.5 159t-97 105t-148.5 37z" />
    <glyph glyph-name="h" unicode="h" 
d="M590 1475l-129 -605q153 226 403 226q132 0 211.5 -68.5t79.5 -181.5q0 -71 -20 -160l-146 -686h-129l144 670q16 82 16 127q0 87 -56.5 136.5t-154.5 49.5q-95 0 -175.5 -44t-139.5 -128q-37 -52 -58.5 -108.5t-48.5 -180.5l-111 -522h-129l314 1475h129z" />
    <glyph glyph-name="i" unicode="i" horiz-adv-x="455" 
d="M606 1475l-45 -209h-129l45 209h129zM518 1065l-225 -1065h-129l227 1065h127z" />
    <glyph glyph-name="j" unicode="j" horiz-adv-x="455" 
d="M522 1065l-241 -1137q-36 -169 -82 -231q-79 -105 -244 -105q-37 0 -64 5l23 108q23 -2 51 -2q46 0 74.5 8.5t48 31t34 63.5t30.5 118l241 1141h129zM608 1475l-43 -209h-129l45 209h127z" />
    <glyph glyph-name="k" unicode="k" horiz-adv-x="1024" 
d="M1194 1065l-504 -391l307 -674h-151l-266 584l-226 -181l-86 -403h-129l314 1475h129l-199 -930l651 520h160z" />
    <glyph glyph-name="l" unicode="l" horiz-adv-x="455" 
d="M606 1475l-313 -1475h-129l313 1475h129z" />
    <glyph glyph-name="m" unicode="m" horiz-adv-x="1706" 
d="M479 1065l-39 -182q60 72 122.5 121t126.5 70.5t138 21.5q227 0 256 -209q162 209 381 209q124 0 203.5 -63.5t79.5 -164.5q0 -57 -16 -135l-156 -733h-129l149 698q15 75 15 121q0 78 -51 121t-142 43q-90 0 -164.5 -39t-125 -113t-80.5 -219l-132 -612h-127l148 694
q16 78 16 133q0 46 -22 82t-64 55t-94 19q-91 0 -170 -43.5t-131 -124.5q-30 -44 -49 -94.5t-37 -134.5l-125 -586h-129l227 1065h121z" />
    <glyph glyph-name="n" unicode="n" 
d="M496 1065l-43 -197q92 121 187.5 174.5t221.5 53.5q66 0 120 -17t94 -49.5t60.5 -75t20.5 -96.5q0 -33 -5 -74t-17 -100l-146 -684h-129l137 643q23 100 23 158q0 87 -55.5 134.5t-151.5 47.5q-62 0 -121.5 -19.5t-109.5 -56.5t-86 -90q-26 -35 -43.5 -71.5t-33.5 -90
t-30 -118.5l-113 -537h-129l228 1065h121z" />
    <glyph glyph-name="o" unicode="o" 
d="M813 1096q115 0 202 -48t133 -136t46 -205q0 -203 -82.5 -372.5t-226.5 -267.5t-316 -98q-124 0 -213 47t-135.5 136.5t-46.5 214.5q0 133 45.5 266.5t122.5 230.5q185 232 471 232zM786 987q-97 0 -185 -45.5t-154.5 -128.5t-104 -194.5t-37.5 -237.5q0 -70 19.5 -126.5
t57 -96.5t89.5 -60t119 -20q106 0 195 51t155 150q56 81 88.5 188t32.5 215q0 91 -33 160.5t-95.5 107t-146.5 37.5z" />
    <glyph glyph-name="p" unicode="p" horiz-adv-x="1251" 
d="M510 1065l-43 -203q79 115 185.5 174.5t236.5 59.5q118 0 203 -47t130.5 -137t45.5 -212q0 -198 -82 -366t-223.5 -266.5t-305.5 -98.5q-268 0 -325 230l-125 -594h-129l311 1460h121zM858 987q-114 0 -212 -58.5t-161 -164.5q-45 -76 -74.5 -183t-29.5 -204
q0 -92 35 -159t100 -103.5t150 -36.5q126 0 234.5 81t171.5 218t63 301q0 97 -32.5 166t-95.5 106t-149 37z" />
    <glyph glyph-name="q" unicode="q" horiz-adv-x="1251" 
d="M1315 1065l-309 -1460h-129l127 594q-74 -110 -183.5 -170t-238.5 -60q-186 0 -281 107q-94 107 -94 276q0 99 23.5 197.5t67 187t103.5 158.5q173 201 424 201q140 0 215.5 -54t110.5 -180l43 203h121zM817 987q-223 0 -362 -213q-54 -82 -84.5 -188t-30.5 -207
q0 -94 33 -162t94.5 -103.5t148.5 -35.5q112 0 207.5 57t161.5 164q49 77 79 184.5t30 206.5q0 137 -74.5 217t-202.5 80z" />
    <glyph glyph-name="r" unicode="r" horiz-adv-x="682" 
d="M856 1081l-27 -131h-30q-146 0 -260 -119q-59 -61 -93.5 -143.5t-70.5 -251.5l-92 -436h-129l227 1065h121l-51 -238q55 91 115 147.5t130.5 81.5t159.5 25z" />
    <glyph glyph-name="s" unicode="s" horiz-adv-x="1024" 
d="M1055 756h-127q4 48 4 63q0 80 -60.5 124t-162.5 44q-131 0 -209 -59t-78 -158q0 -41 20 -66t73 -45.5t163 -48.5q147 -37 215 -73q106 -62 106 -187q0 -74 -39 -146.5t-108 -127.5q-135 -107 -340 -107q-160 0 -257 74t-97 197q0 36 10 108h127q-6 -43 -6 -78
q0 -89 66 -140.5t182 -51.5q93 0 167.5 31.5t117 87.5t42.5 127q0 59 -51 95t-190 73q-175 46 -226 69q-110 54 -110 178q0 58 27.5 120t72.5 110q124 127 346 127q103 0 177.5 -30.5t113.5 -87.5t39 -132q0 -26 -8 -90z" />
    <glyph glyph-name="t" unicode="t" horiz-adv-x="569" 
d="M745 1065l-22 -109h-191l-143 -671q-16 -78 -16 -113q0 -68 88 -68q37 0 82 9l-23 -113q-55 -8 -106 -8q-91 0 -134.5 31t-43.5 96q0 33 10 88q7 40 15 78.5t13 62.5l129 608h-159l22 109h160l70 326h129l-70 -326h190z" />
    <glyph glyph-name="u" unicode="u" 
d="M1217 1065l-228 -1065h-121l43 199q-79 -112 -183 -171t-226 -59q-132 0 -212.5 69.5t-80.5 184.5q0 53 18 156l148 686h127l-133 -631q-25 -113 -25 -164q0 -56 25 -99t72.5 -66t109.5 -23q88 0 166 41t137 115q42 54 70 120.5t47 159.5l116 547h130z" />
    <glyph glyph-name="v" unicode="v" horiz-adv-x="1024" 
d="M1217 1065l-625 -1065h-139l-191 1065h139l152 -938l532 938h132z" />
    <glyph glyph-name="w" unicode="w" horiz-adv-x="1479" 
d="M1675 1065l-532 -1065h-139l-70 909l-453 -909h-141l-82 1065h133l66 -918l438 918h147l62 -915l438 915h133z" />
    <glyph glyph-name="x" unicode="x" horiz-adv-x="1024" 
d="M1171 1065l-471 -498l285 -567h-154l-225 475l-426 -475h-143l516 559l-260 506h153l199 -414l383 414h143z" />
    <glyph glyph-name="y" unicode="y" horiz-adv-x="1024" 
d="M1212 1065l-649 -1106q-119 -203 -172 -264q-85 -101 -229 -101q-43 0 -99 11l25 114q60 -14 90 -14q89 0 150 80q52 65 139 223l-205 1057h139l160 -922l520 922h131z" />
    <glyph glyph-name="z" unicode="z" horiz-adv-x="1024" 
d="M1155 1065l-20 -92l-895 -867h745l-22 -106h-889l22 104l887 852h-659l22 109h809z" />
    <glyph glyph-name="braceleft" unicode="{" horiz-adv-x="682" 
d="M592 1163l-80 -375q-21 -104 -59 -157.5t-115 -91.5q43 -27 61.5 -61.5t18.5 -84.5q0 -55 -12 -112l-76 -357q-5 -12 -8 -49q-7 -38 -7 -59q0 -51 40 -80t110 -29h51l-22 -102h-52q-130 0 -189.5 45.5t-59.5 142.5q0 61 16 139l74 349q12 49 12 90q0 90 -92 121l20 100
q72 19 111 65t59 138l80 379q19 82 48 138.5t72 91.5t104.5 53t144.5 18h49l-23 -103h-49q-100 0 -153 -51q-52 -49 -74 -158z" />
    <glyph glyph-name="bar" unicode="|" horiz-adv-x="455" 
d="M610 1513l-321 -1513h-123l321 1513h123z" />
    <glyph glyph-name="braceright" unicode="}" horiz-adv-x="682" 
d="M319 -84l80 375q16 72 36 116.5t54 77t84 56.5q-43 29 -61 62t-18 83q0 39 12 113l76 356q14 54 14 109q0 51 -39.5 79.5t-110.5 28.5h-51l23 103h51q132 0 191 -45.5t59 -145.5q0 -55 -17 -137l-73 -348q-13 -63 -13 -90q0 -93 93 -121l-21 -101q-72 -19 -110.5 -65.5
t-59.5 -136.5l-80 -379q-33 -159 -120 -230t-248 -71h-50l23 102h49q45 0 87.5 14t66.5 37q25 24 42 60t31 98z" />
    <glyph glyph-name="asciitilde" unicode="~" horiz-adv-x="1352" 
d="M358 559l-63 59q82 120 165 179t169 59q44 0 97 -20t134 -68q91 -52 122.5 -65t68.5 -13q42 0 79 16.5t76.5 53.5t87.5 100l64 -59q-158 -236 -342 -236q-54 0 -117 29q-7 3 -135 76q-98 61 -168 61q-57 0 -112 -39t-126 -133z" />
    <glyph glyph-name="exclamdown" unicode="&#xa1;" horiz-adv-x="682" 
d="M186 -410l93 433l174 671h73l-112 -671l-92 -433h-136zM449 858l45 207h149l-45 -207h-149z" />
    <glyph glyph-name="cent" unicode="&#xa2;" 
d="M1038 602h125q-58 -178 -189.5 -285.5t-303.5 -119.5l-47 -222h-95l47 222q-109 10 -186 59t-116.5 133t-39.5 195q0 98 25.5 201t75 194.5t112.5 155.5q76 77 162.5 121t204.5 63l39 180h96l-39 -182q111 -8 185 -49q64 -37 103.5 -108t39.5 -150q0 -37 -2 -60h-133v29
q0 64 -26.5 113t-74.5 78.5t-116 37.5l-193 -905q80 8 147 45.5t118.5 103t80.5 150.5zM598 305l193 901q-85 -15 -151 -53.5t-120 -103.5q-69 -83 -110 -201.5t-41 -235.5q0 -261 229 -307z" />
    <glyph glyph-name="sterling" unicode="&#xa3;" 
d="M1231 979h-127q10 54 10 104q0 271 -283 271q-84 0 -158 -27.5t-129 -77t-85.5 -116t-30.5 -142.5q0 -62 33 -162q8 -24 22 -73h336l-20 -97h-285q10 -40 10 -81q0 -88 -27.5 -160.5t-86.5 -142t-166 -154.5q-6 -4 -14.5 -12t-20.5 -17q87 40 135 53t105 13q69 0 135 -23
l57 -18l27 -11l28 -10q46 -16 95 -16q132 0 264 106l45 -98q-71 -60 -158.5 -93.5t-169.5 -33.5q-78 0 -141 23l-35 12l-33 12l-33 12q-79 33 -157 33q-61 0 -113 -17.5t-137 -68.5l-49 109q156 100 237.5 217.5t81.5 243.5q0 37 -14 122h-174l20 97h119q-32 92 -40.5 130
t-8.5 91q0 135 74.5 247.5t202.5 177t286 64.5q120 0 208.5 -40t135.5 -115t47 -178q0 -73 -18 -154z" />
    <glyph glyph-name="currency" unicode="&#xa4;" 
d="M131 336l209 176q-49 85 -49 184t40.5 187t125.5 174l-140 178l78 63l137 -176q84 57 152 80t147 23q74 0 134 -24.5t114 -78.5l213 176l51 -63l-213 -176q50 -97 50 -189q0 -186 -164 -358l137 -176l-76 -66l-139 179q-143 -101 -299 -101q-133 0 -246 101l-213 -179z
M809 1124q-103 0 -199 -58.5t-154.5 -152.5t-58.5 -196q0 -117 74.5 -192.5t190.5 -75.5q103 0 199.5 57.5t155 151.5t58.5 196q0 78 -34 139.5t-93.5 96t-138.5 34.5z" />
    <glyph glyph-name="yen" unicode="&#xa5;" 
d="M555 840l-217 590h143l246 -703l543 703h137l-467 -590h326l-21 -88h-375l-112 -142l-23 -108h457l-18 -88h-457l-88 -414h-121l88 414h-457l19 88h458l23 108l-53 142h-375l18 88h326z" />
    <glyph glyph-name="brokenbar" unicode="&#xa6;" horiz-adv-x="455" 
d="M471 1475h137l-153 -732h-140zM229 340h140l-152 -709h-137z" />
    <glyph glyph-name="section" unicode="&#xa7;" 
d="M1165 1092h-125q9 39 9 69q0 92 -52.5 140.5t-148.5 48.5q-113 0 -190.5 -66.5t-77.5 -159.5q0 -42 13.5 -69.5t47.5 -57t115 -84.5q217 -145 270 -194q61 -55 87 -106t26 -113q0 -113 -78.5 -213t-208.5 -148q43 -44 59.5 -83t16.5 -89q0 -102 -59 -189t-161.5 -137.5
t-220.5 -50.5q-150 0 -233.5 75t-83.5 210q0 39 10 98h127q-6 -51 -6 -77q0 -96 56 -146.5t159 -50.5q126 0 209 80q32 33 51 73t19 74q0 58 -35 106t-119 107q-60 44 -111 78l-38 25l-37 26l-39 27q-101 69 -146 133.5t-45 140.5q0 126 80 229t207 140q-35 42 -49 78.5
t-14 79.5q0 97 56.5 179.5t154.5 131.5t212 49q95 0 164.5 -31t105.5 -90t36 -145q0 -47 -13 -98zM571 874q-72 -31 -120.5 -71t-73.5 -88t-25 -105q0 -73 72 -139q50 -43 205 -149q101 -69 157 -117q102 36 163 104t61 146q0 55 -31 102t-105 100q-69 54 -227 160
q-47 32 -76 57z" />
    <glyph glyph-name="dieresis" unicode="&#xa8;" horiz-adv-x="682" 
d="M895 1477l-45 -211h-131l45 211h131zM567 1477l-45 -211h-131l45 211h131z" />
    <glyph glyph-name="copyright" unicode="&#xa9;" horiz-adv-x="1638" 
d="M1264 649h98q-31 -106 -98.5 -186t-161 -123t-201.5 -43q-102 0 -176.5 38.5t-114 110t-39.5 168.5q0 153 71 283t192 205.5t262 75.5q91 0 161 -32t109 -88t39 -128q0 -19 -2 -35h-98q0 94 -60 146.5t-170 52.5q-108 0 -201 -62.5t-146.5 -169.5t-53.5 -229
q0 -119 65.5 -185.5t182.5 -66.5q123 0 210.5 69.5t131.5 198.5zM1145 1509q131 0 245 -45.5t195 -126.5t126.5 -195t45.5 -245q0 -175 -77 -343t-214.5 -302.5t-308.5 -210.5t-352 -76q-174 0 -312.5 78.5t-217 219t-78.5 315.5q0 176 78 344.5t212.5 302t306 209
t351.5 75.5zM1128 1434q-161 0 -313 -68.5t-273.5 -189t-191 -273t-69.5 -311.5q0 -157 69.5 -283t193.5 -197t277 -71q160 0 314.5 69t275.5 189t190.5 272.5t69.5 309.5q0 120 -39.5 221.5t-113 176.5t-172.5 115t-218 40z" />
    <glyph glyph-name="ordfeminine" unicode="&#xaa;" horiz-adv-x="684" 
d="M805 655h-649l16 74h649zM834 958l-15 -67q-39 -12 -67 -12q-68 0 -68 59q0 5 4 31q-101 -101 -239 -101q-80 0 -123 34.5t-43 98.5q0 52 30 102t76 77q51 28 135 41q12 2 17 2.5t12 1.5l33 2l35 4l32 2q62 6 84.5 29t22.5 81q0 36 -33 56t-94 20q-76 0 -119.5 -32.5
t-64.5 -104.5h-84q25 102 100 156.5t190 54.5q90 0 141.5 -33.5t51.5 -91.5q0 -25 -10 -74v0l-39 -180q-8 -36 -12 -53t-13 -64q-4 -22 -4 -26q0 -19 25 -19q10 0 39 6zM715 1112l16 78q-49 -18 -98 -25q-94 -11 -135 -20.5t-68 -24.5q-24 -15 -39.5 -42t-15.5 -54
q0 -39 29.5 -61.5t80.5 -22.5q83 0 148 48.5t82 123.5z" />
    <glyph glyph-name="guillemotleft" unicode="&#xab;" 
d="M573 223l-219 262l27 125l330 258l-29 -135l-233 -186l155 -185zM903 223l-217 258l27 127l327 260l-28 -135l-232 -188l152 -185z" />
    <glyph glyph-name="logicalnot" unicode="&#xac;" horiz-adv-x="1352" 
d="M1016 0l102 483h-815l27 123h948l-129 -606h-133z" />
    <glyph glyph-name="registered" unicode="&#xae;" horiz-adv-x="1638" 
d="M754 1159h395q248 0 248 -176q0 -88 -50.5 -156.5t-142.5 -101.5q92 -28 92 -121q0 -29 -6 -65l-4 -25l-2 -25l-4 -22q-8 -74 -8 -82q0 -37 24 -68h-116q-11 16 -11 45q0 16 7 62q2 4 2 14l4 25l4 22l4 23q4 36 4 53q0 72 -40 98.5t-150 26.5h-250l-78 -369h-101z
M836 1075l-66 -309h240q149 0 215 49q69 56 69 146q0 114 -190 114h-268zM1145 1509q131 0 245 -45.5t195 -126.5t126.5 -195t45.5 -245q0 -175 -77 -343t-214.5 -302.5t-308.5 -210.5t-352 -76q-174 0 -312.5 78.5t-217 219t-78.5 315.5q0 176 78 344.5t212.5 302t306 209
t351.5 75.5zM1128 1434q-161 0 -313 -68.5t-273.5 -189t-191 -273t-69.5 -311.5q0 -157 69.5 -283t193.5 -197t277 -71q160 0 314.5 69t275.5 189t190.5 272.5t69.5 309.5q0 120 -39.5 221.5t-113 176.5t-172.5 115t-218 40z" />
    <glyph glyph-name="macron" unicode="&#xaf;" horiz-adv-x="682" 
d="M932 1419l-21 -92h-575l20 92h576z" />
    <glyph glyph-name="degree" unicode="&#xb0;" horiz-adv-x="819" 
d="M729 1468q66 0 123.5 -32.5t90 -87.5t32.5 -123q0 -99 -54 -188.5t-144 -144t-187 -54.5q-75 0 -131.5 31t-89.5 88t-33 128q0 96 55 186t146 143.5t192 53.5zM702 1384q-68 0 -133 -40t-105 -105t-40 -133q0 -80 51 -132t133 -52q70 0 135 39.5t104.5 105t39.5 135.5
q0 81 -52.5 131.5t-132.5 50.5z" />
    <glyph glyph-name="plusminus" unicode="&#xb1;" horiz-adv-x="1352" 
d="M371 874h442l96 447h95l-95 -447h443l-21 -96h-442l-96 -446h-95l95 446h-443zM229 207h981l-20 -96h-981z" />
    <glyph glyph-name="twosuperior" unicode="&#xb2;" horiz-adv-x="682" 
d="M778 674l-18 -84h-602q20 71 48.5 119.5t74.5 91.5q32 29 104 78q21 13 135 77q161 91 213 148q64 70 64 153q0 60 -42 94.5t-114 34.5q-66 0 -114.5 -25.5t-82 -77.5t-53.5 -134h-92q16 76 47.5 134.5t78.5 100.5t106.5 62t130.5 20q109 0 171 -50.5t62 -141.5
q0 -132 -117 -240q-42 -39 -100.5 -76t-155.5 -90q-117 -64 -166 -104t-73 -90h495z" />
    <glyph glyph-name="threesuperior" unicode="&#xb3;" horiz-adv-x="682" 
d="M377 1171h-90q36 144 126.5 219.5t231.5 75.5q108 0 170 -48t62 -132q0 -76 -44.5 -137.5t-125.5 -93.5q59 -18 89.5 -58.5t30.5 -97.5q0 -88 -50.5 -164t-137.5 -120t-190 -44q-120 0 -189.5 57t-69.5 154q0 32 15 97h90q-8 -41 -8 -70q0 -73 48 -115.5t132 -42.5
q71 0 130.5 30.5t94.5 83.5t35 112q0 133 -192 133q-31 0 -54 -2l17 79q20 -2 45 -2q105 0 170 50.5t65 132.5q0 56 -40.5 87t-112.5 31q-193 0 -248 -215z" />
    <glyph glyph-name="acute" unicode="&#xb4;" horiz-adv-x="682" 
d="M932 1518l-320 -293h-104l268 293h156z" />
    <glyph glyph-name="mu" unicode="&#xb5;" 
d="M70 -365l303 1426h121l-132 -612q-22 -107 -22 -164q0 -87 67 -149t162 -62q139 0 251.5 112.5t148.5 286.5l125 588h120l-225 -1061h-115l46 217q-149 -248 -375 -248q-97 0 -156.5 40.5t-97.5 131.5l-107 -506h-114z" />
    <glyph glyph-name="paragraph" unicode="&#xb6;" horiz-adv-x="1331" 
d="M471 -395l231 1089h-30q-90 0 -155.5 35t-100.5 99.5t-35 154.5q0 103 48.5 210.5t127.5 174.5q67 56 149.5 81.5t200.5 25.5h469l-20 -99h-96l-375 -1771h-127l377 1771h-162l-375 -1771h-127z" />
    <glyph glyph-name="cedilla" unicode="&#xb8;" horiz-adv-x="682" 
d="M377 0l-113 -115q56 6 78 6q61 0 97 -28t36 -76q0 -57 -34.5 -104.5t-96 -75t-133.5 -27.5q-82 0 -180 41l43 64q62 -33 137 -33q67 0 107 30.5t40 79.5q0 30 -25 47t-67 17q-38 0 -90 -16l-24 30l155 160h70z" />
    <glyph glyph-name="onesuperior" unicode="&#xb9;" horiz-adv-x="682" 
d="M762 1456l-184 -866h-99l135 635h-26h-88h-72h-45l16 73q103 3 150.5 13.5t75.5 41t61 103.5h76z" />
    <glyph glyph-name="ordmasculine" unicode="&#xba;" horiz-adv-x="684" 
d="M801 655h-639l16 74h639zM664 1491q104 0 164.5 -59.5t60.5 -161.5q0 -83 -26.5 -156t-76.5 -129t-116.5 -86.5t-141.5 -30.5q-108 0 -169.5 59t-61.5 165q0 110 48.5 202t133 144.5t185.5 52.5zM645 1419q-72 0 -131 -41.5t-94 -114.5t-35 -159q0 -76 41.5 -120
t116.5 -44q71 0 129.5 41.5t92.5 113.5t34 160q0 78 -40.5 121t-113.5 43z" />
    <glyph glyph-name="guillemotright" unicode="&#xbb;" 
d="M797 868l219 -262l-27 -125l-332 -258l29 135l236 187l-156 184zM467 868l219 -258l-29 -127l-327 -260l28 135l232 187l-152 186z" />
    <glyph glyph-name="onequarter" unicode="&#xbc;" horiz-adv-x="1708" 
d="M723 1456l-184 -866h-99l135 635h-26h-88h-72h-45l18 73q103 3 150 13.5t75 41t60 103.5h76zM1575 1448l-1174 -1448h-98l1178 1448h94zM1655 287l-17 -78h-135l-45 -209h-88l43 209h-409l16 82l543 575h79l-122 -579h135zM1432 287l94 446l-418 -446h324z" />
    <glyph glyph-name="onehalf" unicode="&#xbd;" horiz-adv-x="1708" 
d="M723 1456l-184 -866h-99l135 635h-26h-88h-72h-45l16 73q103 3 150.5 13.5t75.5 41t61 103.5h76zM1561 1448l-1174 -1448h-98l1177 1448h95zM1634 84l-18 -84h-602q20 73 49 122t73.5 88.5t104.5 78.5q27 16 76 43l29 18l30 17q161 89 213 147q64 67 64 154
q0 60 -42 94.5t-114 34.5q-193 0 -248 -238h-94q32 153 126 236.5t237 83.5q72 0 124.5 -23t80.5 -67t28 -103q0 -134 -117 -242q-43 -39 -96.5 -73t-159.5 -92q-119 -66 -167 -104.5t-70 -90.5h493z" />
    <glyph glyph-name="threequarters" unicode="&#xbe;" horiz-adv-x="1708" 
d="M451 1171h-91q36 144 127 219.5t232 75.5q70 0 122 -21.5t80.5 -63t28.5 -95.5q0 -76 -45 -138t-125 -93q58 -18 89.5 -58.5t31.5 -97.5q0 -88 -50.5 -164t-138 -120t-190.5 -44q-119 0 -188.5 57t-69.5 154q0 38 15 97h90q-9 -40 -9 -70q0 -73 48 -115.5t133 -42.5
q71 0 130.5 30.5t94.5 83.5t35 112q0 133 -193 133q-30 0 -53 -2l16 79q21 -2 45 -2q70 0 123.5 23t83 64t29.5 96q0 56 -40.5 87t-113.5 31q-193 0 -247 -215zM1714 1448l-1175 -1448h-99l1178 1448h96zM1683 287l-16 -78h-135l-45 -209h-88l43 209h-410l17 82l542 575h80
l-123 -579h135zM1458 287l96 446l-417 -446h321z" />
    <glyph glyph-name="questiondown" unicode="&#xbf;" horiz-adv-x="1024" 
d="M831 47h125q-44 -188 -137 -297q-55 -63 -119.5 -104t-143.5 -63.5t-159 -22.5q-165 0 -263.5 79.5t-98.5 215.5q0 161 110 295q30 37 81.5 82.5t158.5 127.5q60 48 89.5 77.5t49.5 62.5t34.5 76.5t31.5 121.5h123q-21 -96 -39 -147t-45 -92q-30 -49 -117 -127
q-7 -6 -76 -62l-33 -26l-34 -29q-197 -157 -197 -326q0 -97 68.5 -156t183.5 -59q191 0 309 152q34 43 56 93t42 128zM612 858l43 207h150l-43 -207h-150z" />
    <glyph glyph-name="Agrave" unicode="&#xc0;" horiz-adv-x="1366" 
d="M782 1876h168l168 -279h-108zM1075 1479l258 -1479h-145l-82 465h-655l-275 -465h-145l893 1479h151zM1094 578l-125 768l-453 -768h578z" />
    <glyph glyph-name="Aacute" unicode="&#xc1;" horiz-adv-x="1366" 
d="M1382 1876l-348 -279h-106l284 279h170zM1075 1479l258 -1479h-145l-82 465h-655l-275 -465h-145l893 1479h151zM1094 578l-125 768l-453 -768h578z" />
    <glyph glyph-name="Acircumflex" unicode="&#xc2;" horiz-adv-x="1366" 
d="M1343 1597h-131l-147 220l-246 -220h-117l314 293h135zM1075 1479l258 -1479h-145l-82 465h-655l-275 -465h-145l893 1479h151zM1094 578l-125 768l-453 -768h578z" />
    <glyph glyph-name="Atilde" unicode="&#xc3;" horiz-adv-x="1366" 
d="M1317 1839h80q-37 -97 -94.5 -149t-126.5 -52q-45 0 -107 27q-6 3 -24.5 13t-67.5 36q-33 19 -70 19q-40 0 -68.5 -24t-56.5 -79h-75q39 100 97 150.5t132 50.5q59 0 127 -39q73 -40 90.5 -47.5t38.5 -7.5q41 0 71.5 25t53.5 77zM1075 1479l258 -1479h-145l-82 465h-655
l-275 -465h-145l893 1479h151zM1094 578l-125 768l-453 -768h578z" />
    <glyph glyph-name="Adieresis" unicode="&#xc4;" horiz-adv-x="1366" 
d="M1341 1835l-43 -207h-139l45 207h137zM942 1835l-43 -207h-139l45 207h137zM1075 1479l258 -1479h-145l-82 465h-655l-275 -465h-145l893 1479h151zM1094 578l-125 768l-453 -768h578z" />
    <glyph glyph-name="Aring" unicode="&#xc5;" horiz-adv-x="1366" 
d="M1112 2005q50 0 89 -23t62 -61t23 -86q0 -70 -38 -133t-101 -101t-135 -38q-73 0 -123.5 49.5t-50.5 120.5q0 70 38 133t101 101t135 38zM1092 1919q-43 0 -82 -23t-62.5 -62t-23.5 -81q0 -43 30.5 -73.5t75.5 -30.5q69 0 119.5 49.5t50.5 116.5q0 45 -30.5 74.5
t-77.5 29.5zM1075 1479l258 -1479h-145l-82 465h-655l-275 -465h-145l893 1479h151zM1094 578l-125 768l-453 -768h578z" />
    <glyph glyph-name="AE" unicode="&#xc6;" horiz-adv-x="2048" 
d="M2271 1475l-26 -121h-807l-113 -531h752l-25 -121h-754l-122 -581h817l-27 -121h-954l102 481h-577l-373 -481h-154l1137 1475h1124zM1139 600l159 754h-100l-575 -754h516z" />
    <glyph glyph-name="Ccedilla" unicode="&#xc7;" horiz-adv-x="1479" 
d="M776 -33l-82 -92q49 10 76 10q39 0 70.5 -14t48 -37.5t16.5 -54.5q0 -55 -36.5 -102.5t-96.5 -75t-131 -27.5q-82 0 -182 41l41 63q68 -32 139 -32q57 0 101 32.5t44 73.5q0 30 -24 49t-60 19q-39 0 -96 -19l-24 33l131 133q-112 11 -181 36.5t-129 74.5
q-84 72 -128 182.5t-44 247.5q0 98 16.5 191t52.5 190.5t83 178.5t108 153q249 288 601 288q236 0 366 -133q57 -57 89 -134t32 -157q0 -3 -4 -53h-137q0 108 -45.5 189t-130.5 124.5t-201 43.5q-105 0 -199.5 -35t-178 -106t-146.5 -167q-76 -114 -120 -259t-44 -287
q0 -137 48.5 -239t141 -155t215.5 -53q101 0 189.5 31.5t164 93.5t132 150.5t94.5 201.5h137q-54 -177 -157.5 -309.5t-247 -207t-312.5 -81.5z" />
    <glyph glyph-name="Egrave" unicode="&#xc8;" horiz-adv-x="1251" 
d="M725 1876h168l168 -279h-109zM1473 1475l-27 -121h-854l-113 -531h799l-25 -121h-798l-125 -581h864l-27 -121h-1001l313 1475h994z" />
    <glyph glyph-name="Eacute" unicode="&#xc9;" horiz-adv-x="1251" 
d="M1325 1876l-348 -279h-107l285 279h170zM1473 1475l-27 -121h-854l-113 -531h799l-25 -121h-798l-125 -581h864l-27 -121h-1001l313 1475h994z" />
    <glyph glyph-name="Ecircumflex" unicode="&#xca;" horiz-adv-x="1251" 
d="M1286 1597h-131l-147 220l-246 -220h-117l313 293h136zM1473 1475l-27 -121h-854l-113 -531h799l-25 -121h-798l-125 -581h864l-27 -121h-1001l313 1475h994z" />
    <glyph glyph-name="Edieresis" unicode="&#xcb;" horiz-adv-x="1251" 
d="M1284 1835l-43 -207h-139l45 207h137zM887 1835l-45 -207h-140l46 207h139zM1473 1475l-27 -121h-854l-113 -531h799l-25 -121h-798l-125 -581h864l-27 -121h-1001l313 1475h994z" />
    <glyph glyph-name="Igrave" unicode="&#xcc;" horiz-adv-x="569" 
d="M383 1876h168l168 -279h-107zM668 1475l-314 -1475h-139l313 1475h140z" />
    <glyph glyph-name="Iacute" unicode="&#xcd;" horiz-adv-x="569" 
d="M983 1876l-348 -279h-107l287 279h168zM668 1475l-314 -1475h-139l313 1475h140z" />
    <glyph glyph-name="Icircumflex" unicode="&#xce;" horiz-adv-x="569" 
d="M944 1597h-131l-147 220l-246 -220h-117l315 293h134zM668 1475l-314 -1475h-139l313 1475h140z" />
    <glyph glyph-name="Idieresis" unicode="&#xcf;" horiz-adv-x="569" 
d="M879 1835l-45 -207h-140l45 207h140zM610 1835l-43 -207h-139l43 207h139zM668 1475l-314 -1475h-139l313 1475h140z" />
    <glyph glyph-name="Eth" unicode="&#xd0;" horiz-adv-x="1479" 
d="M479 1475h533q141 0 234.5 -27t162.5 -88q147 -132 147 -391q0 -65 -11 -136.5t-27 -133t-46 -141t-59 -132.5q-63 -119 -162.5 -217t-208.5 -148q-72 -33 -152 -47t-181 -14h-543l151 715h-159l26 121h160zM594 1354l-111 -518h439l-27 -121h-438l-125 -594h368
q175 0 279 39t197 137q57 60 101 136t73 167q30 83 48.5 183.5t18.5 177.5q0 89 -29.5 166.5t-80.5 125.5q-55 52 -132 76.5t-190 24.5h-391z" />
    <glyph glyph-name="Ntilde" unicode="&#xd1;" horiz-adv-x="1479" 
d="M1374 1839h80q-81 -201 -223 -201q-43 0 -105 27q-1 1 -92 49q-35 19 -71 19q-40 0 -69.5 -24.5t-53.5 -78.5h-78q78 201 231 201q56 0 127 -39q73 -41 90 -48t37 -7q41 0 71.5 24.5t55.5 77.5zM1628 1475l-313 -1475h-168l-569 1307l-277 -1307h-139l313 1475h168
l569 -1301l277 1301h139z" />
    <glyph glyph-name="Ograve" unicode="&#xd2;" horiz-adv-x="1593" 
d="M895 1876h170l168 -279h-109zM1122 1509q121 0 221 -38.5t172 -112t110 -177t38 -231.5q0 -262 -118.5 -490.5t-320.5 -361.5t-436 -133q-167 0 -290 67t-189.5 191t-66.5 293q0 97 18 193.5t52.5 191.5t82 175.5t107.5 146.5q126 140 284.5 213t335.5 73zM1094 1389
q-193 0 -357 -114t-259 -310t-95 -428q0 -135 53 -238t149 -158t226 -55q192 0 356 114t259.5 307.5t95.5 420.5q0 140 -52.5 244.5t-150.5 160.5t-225 56z" />
    <glyph glyph-name="Oacute" unicode="&#xd3;" horiz-adv-x="1593" 
d="M1495 1876l-346 -279h-109l287 279h168zM1122 1509q121 0 221 -38.5t172 -112t110 -177t38 -231.5q0 -262 -118.5 -490.5t-320.5 -361.5t-436 -133q-167 0 -290 67t-189.5 191t-66.5 293q0 97 18 193.5t52.5 191.5t82 175.5t107.5 146.5q126 140 284.5 213t335.5 73z
M1094 1389q-193 0 -357 -114t-259 -310t-95 -428q0 -135 53 -238t149 -158t226 -55q192 0 356 114t259.5 307.5t95.5 420.5q0 140 -52.5 244.5t-150.5 160.5t-225 56z" />
    <glyph glyph-name="Ocircumflex" unicode="&#xd4;" horiz-adv-x="1593" 
d="M1456 1597h-129l-149 220l-244 -220h-117l313 293h136zM1122 1509q121 0 221 -38.5t172 -112t110 -177t38 -231.5q0 -262 -118.5 -490.5t-320.5 -361.5t-436 -133q-167 0 -290 67t-189.5 191t-66.5 293q0 97 18 193.5t52.5 191.5t82 175.5t107.5 146.5q126 140 284.5 213
t335.5 73zM1094 1389q-193 0 -357 -114t-259 -310t-95 -428q0 -135 53 -238t149 -158t226 -55q192 0 356 114t259.5 307.5t95.5 420.5q0 140 -52.5 244.5t-150.5 160.5t-225 56z" />
    <glyph glyph-name="Otilde" unicode="&#xd5;" horiz-adv-x="1593" 
d="M1432 1839h79q-82 -201 -223 -201q-42 0 -104 27q-10 5 -14.5 7.5t-12.5 6.5l-22 13l-23 10l-20 12q-36 19 -70 19q-40 0 -68.5 -24t-56.5 -79h-78q39 98 98.5 149.5t133.5 51.5q55 0 127 -39q73 -40 90 -47.5t37 -7.5q40 0 72 25t55 77zM1122 1509q121 0 221 -38.5
t172 -112t110 -177t38 -231.5q0 -262 -118.5 -490.5t-320.5 -361.5t-436 -133q-167 0 -290 67t-189.5 191t-66.5 293q0 97 18 193.5t52.5 191.5t82 175.5t107.5 146.5q126 140 284.5 213t335.5 73zM1094 1389q-193 0 -357 -114t-259 -310t-95 -428q0 -135 53 -238t149 -158
t226 -55q192 0 356 114t259.5 307.5t95.5 420.5q0 140 -52.5 244.5t-150.5 160.5t-225 56z" />
    <glyph glyph-name="Odieresis" unicode="&#xd6;" horiz-adv-x="1593" 
d="M1456 1835l-43 -207h-139l43 207h139zM1057 1835l-43 -207h-140l44 207h139zM1122 1509q121 0 221 -38.5t172 -112t110 -177t38 -231.5q0 -262 -118.5 -490.5t-320.5 -361.5t-436 -133q-167 0 -290 67t-189.5 191t-66.5 293q0 97 18 193.5t52.5 191.5t82 175.5
t107.5 146.5q126 140 284.5 213t335.5 73zM1094 1389q-193 0 -357 -114t-259 -310t-95 -428q0 -135 53 -238t149 -158t226 -55q192 0 356 114t259.5 307.5t95.5 420.5q0 140 -52.5 244.5t-150.5 160.5t-225 56z" />
    <glyph glyph-name="multiply" unicode="&#xd7;" horiz-adv-x="1352" 
d="M336 362l424 353l-275 352l82 68l275 -353l424 353l53 -68l-424 -352l274 -353l-82 -67l-274 352l-424 -352z" />
    <glyph glyph-name="Oslash" unicode="&#xd8;" horiz-adv-x="1593" 
d="M1798 1438l-205 -187q70 -134 70 -301q0 -265 -118 -492.5t-320 -360t-437 -132.5q-274 0 -423 176l-197 -178l-62 70l205 186q-69 135 -69 297q0 269 118 497.5t318.5 362t437.5 133.5q137 0 244.5 -45t179.5 -135l197 176zM1479 1149l-1006 -909q123 -154 340 -154
q192 0 355.5 113.5t258.5 309t95 423.5q0 64 -10 114t-33 103zM424 322l1008 909q-118 158 -340 158q-192 0 -355 -114t-258.5 -310.5t-95.5 -427.5q0 -112 41 -215z" />
    <glyph glyph-name="Ugrave" unicode="&#xd9;" horiz-adv-x="1479" 
d="M838 1876h168l168 -279h-107zM1624 1475l-188 -883q-20 -94 -36 -148t-36 -98q-42 -94 -104 -164t-140.5 -118.5t-174 -73.5t-206.5 -25q-153 0 -259.5 45.5t-162 132.5t-55.5 211q0 98 31 242l188 879h137l-186 -885q-29 -136 -29 -209q0 -148 91 -222.5t270 -74.5
q256 0 391 160q48 57 81.5 139.5t59.5 208.5l189 883h139z" />
    <glyph glyph-name="Uacute" unicode="&#xda;" horiz-adv-x="1479" 
d="M1438 1876l-348 -279h-107l287 279h168zM1624 1475l-188 -883q-20 -94 -36 -148t-36 -98q-42 -94 -104 -164t-140.5 -118.5t-174 -73.5t-206.5 -25q-153 0 -259.5 45.5t-162 132.5t-55.5 211q0 98 31 242l188 879h137l-186 -885q-29 -136 -29 -209q0 -148 91 -222.5
t270 -74.5q256 0 391 160q48 57 81.5 139.5t59.5 208.5l189 883h139z" />
    <glyph glyph-name="Ucircumflex" unicode="&#xdb;" horiz-adv-x="1479" 
d="M1399 1597h-131l-148 220l-246 -220h-116l315 293h133zM1624 1475l-188 -883q-20 -94 -36 -148t-36 -98q-42 -94 -104 -164t-140.5 -118.5t-174 -73.5t-206.5 -25q-153 0 -259.5 45.5t-162 132.5t-55.5 211q0 98 31 242l188 879h137l-186 -885q-29 -136 -29 -209
q0 -148 91 -222.5t270 -74.5q256 0 391 160q48 57 81.5 139.5t59.5 208.5l189 883h139z" />
    <glyph glyph-name="Udieresis" unicode="&#xdc;" horiz-adv-x="1479" 
d="M1397 1835l-43 -207h-140l46 207h137zM999 1835l-45 -207h-139l45 207h139zM1624 1475l-188 -883q-20 -94 -36 -148t-36 -98q-42 -94 -104 -164t-140.5 -118.5t-174 -73.5t-206.5 -25q-153 0 -259.5 45.5t-162 132.5t-55.5 211q0 98 31 242l188 879h137l-186 -885
q-29 -136 -29 -209q0 -148 91 -222.5t270 -74.5q256 0 391 160q48 57 81.5 139.5t59.5 208.5l189 883h139z" />
    <glyph glyph-name="Yacute" unicode="&#xdd;" horiz-adv-x="1251" 
d="M1325 1876l-348 -279h-107l285 279h170zM1538 1475l-715 -865l-129 -610h-139l131 610l-348 865h147l299 -762l607 762h147z" />
    <glyph glyph-name="Thorn" unicode="&#xde;" horiz-adv-x="1251" 
d="M473 1475h139l-47 -222h379q202 0 287 -51q67 -37 103 -102.5t36 -149.5q0 -128 -56 -244.5t-151 -187.5q-74 -58 -164.5 -84t-216.5 -26h-397l-86 -408h-139zM539 1133l-127 -605h356q123 0 194 21t134 74q62 51 96.5 126.5t34.5 159.5q0 148 -131 201q-34 13 -80 18
t-125 5h-352z" />
    <glyph glyph-name="germandbls" unicode="&#xdf;" horiz-adv-x="1024" 
d="M414 -10l22 106q62 -4 72 -4q183 0 291 129q34 39 60 92t40 113t14 117q0 116 -74.5 169.5t-236.5 53.5h-24l22 104h29q174 0 266 93q44 44 70 109.5t26 127.5q0 59 -25.5 103t-72.5 68t-111 24q-142 0 -223 -95q-35 -40 -58 -95t-42 -152l-223 -1053h-130l216 1010
q31 147 55 212t67 117q65 80 160.5 122t206.5 42q97 0 167 -33t108 -94t38 -145q0 -97 -37 -180.5t-104.5 -141.5t-153.5 -80q218 -45 218 -266q0 -67 -15.5 -133t-44 -127t-72.5 -117q-156 -200 -405 -200q-47 0 -96 4z" />
    <glyph glyph-name="agrave" unicode="&#xe0;" 
d="M1116 109l-20 -101q-52 -16 -109 -16q-108 0 -108 100q0 35 12 94q-98 -114 -207 -165.5t-248 -51.5q-94 0 -159.5 27t-99.5 80.5t-34 126.5q0 94 51 181t134 134q103 57 243 76q9 2 11 3t12.5 2t73 7t137.5 12q81 8 125.5 30.5t64 68t19.5 121.5q0 70 -63.5 109.5
t-176.5 39.5q-92 0 -161 -26.5t-115.5 -82.5t-73.5 -143h-123q44 173 176.5 267t331.5 94q106 0 182 -26t116 -75.5t40 -117.5q0 -45 -19 -134q0 -4 -71 -331q-26 -124 -43 -215q-8 -37 -8 -50q0 -47 57 -47q25 0 53 9zM932 408l37 172q-45 -32 -115 -45q-27 -7 -84 -15
l-39 -4l-39 -6l-37 -4q-136 -18 -210.5 -47.5t-114.5 -79.5q-51 -63 -51 -137q0 -79 55.5 -122.5t157.5 -43.5q105 0 198.5 42t157 118t84.5 172zM778 1518l152 -293h-103l-213 293h164z" />
    <glyph glyph-name="aacute" unicode="&#xe1;" 
d="M1116 109l-20 -101q-52 -16 -109 -16q-108 0 -108 100q0 35 12 94q-98 -114 -207 -165.5t-248 -51.5q-94 0 -159.5 27t-99.5 80.5t-34 126.5q0 94 51 181t134 134q103 57 243 76q9 2 11 3t12.5 2t73 7t137.5 12q81 8 125.5 30.5t64 68t19.5 121.5q0 70 -63.5 109.5
t-176.5 39.5q-92 0 -161 -26.5t-115.5 -82.5t-73.5 -143h-123q44 173 176.5 267t331.5 94q106 0 182 -26t116 -75.5t40 -117.5q0 -45 -19 -134q0 -4 -71 -331q-26 -124 -43 -215q-8 -37 -8 -50q0 -47 57 -47q25 0 53 9zM932 408l37 172q-45 -32 -115 -45q-27 -7 -84 -15
l-39 -4l-39 -6l-37 -4q-136 -18 -210.5 -47.5t-114.5 -79.5q-51 -63 -51 -137q0 -79 55.5 -122.5t157.5 -43.5q105 0 198.5 42t157 118t84.5 172zM1159 1518l-319 -293h-105l269 293h155z" />
    <glyph glyph-name="acircumflex" unicode="&#xe2;" 
d="M1116 109l-20 -101q-52 -16 -109 -16q-108 0 -108 100q0 35 12 94q-98 -114 -207 -165.5t-248 -51.5q-94 0 -159.5 27t-99.5 80.5t-34 126.5q0 94 51 181t134 134q103 57 243 76q9 2 11 3t12.5 2t73 7t137.5 12q81 8 125.5 30.5t64 68t19.5 121.5q0 70 -63.5 109.5
t-176.5 39.5q-92 0 -161 -26.5t-115.5 -82.5t-73.5 -143h-123q44 173 176.5 267t331.5 94q106 0 182 -26t116 -75.5t40 -117.5q0 -45 -19 -134q0 -4 -71 -331q-26 -124 -43 -215q-8 -37 -8 -50q0 -47 57 -47q25 0 53 9zM932 408l37 172q-45 -32 -115 -45q-27 -7 -84 -15
l-39 -4l-39 -6l-37 -4q-136 -18 -210.5 -47.5t-114.5 -79.5q-51 -63 -51 -137q0 -79 55.5 -122.5t157.5 -43.5q105 0 198.5 42t157 118t84.5 172zM1112 1225h-127l-115 217l-208 -217h-115l278 293h131z" />
    <glyph glyph-name="atilde" unicode="&#xe3;" 
d="M1116 109l-20 -101q-52 -16 -109 -16q-108 0 -108 100q0 35 12 94q-98 -114 -207 -165.5t-248 -51.5q-94 0 -159.5 27t-99.5 80.5t-34 126.5q0 94 51 181t134 134q103 57 243 76q9 2 11 3t12.5 2t73 7t137.5 12q81 8 125.5 30.5t64 68t19.5 121.5q0 70 -63.5 109.5
t-176.5 39.5q-92 0 -161 -26.5t-115.5 -82.5t-73.5 -143h-123q44 173 176.5 267t331.5 94q106 0 182 -26t116 -75.5t40 -117.5q0 -45 -19 -134q0 -4 -71 -331q-26 -124 -43 -215q-8 -37 -8 -50q0 -47 57 -47q25 0 53 9zM932 408l37 172q-45 -32 -115 -45q-27 -7 -84 -15
l-39 -4l-39 -6l-37 -4q-136 -18 -210.5 -47.5t-114.5 -79.5q-51 -63 -51 -137q0 -79 55.5 -122.5t157.5 -43.5q105 0 198.5 42t157 118t84.5 172zM1096 1477h78q-80 -201 -205 -201q-44 0 -95 29q-5 3 -9 4.5t-17.5 10.5t-54.5 34q-28 18 -64 18q-63 0 -106 -104h-76
q36 99 90.5 150.5t120.5 51.5q53 0 114 -40q66 -42 81 -49t32 -7q35 0 61 23t50 80z" />
    <glyph glyph-name="adieresis" unicode="&#xe4;" 
d="M1116 109l-20 -101q-52 -16 -109 -16q-108 0 -108 100q0 35 12 94q-98 -114 -207 -165.5t-248 -51.5q-94 0 -159.5 27t-99.5 80.5t-34 126.5q0 94 51 181t134 134q103 57 243 76q9 2 11 3t12.5 2t73 7t137.5 12q81 8 125.5 30.5t64 68t19.5 121.5q0 70 -63.5 109.5
t-176.5 39.5q-92 0 -161 -26.5t-115.5 -82.5t-73.5 -143h-123q44 173 176.5 267t331.5 94q106 0 182 -26t116 -75.5t40 -117.5q0 -45 -19 -134q0 -4 -71 -331q-26 -124 -43 -215q-8 -37 -8 -50q0 -47 57 -47q25 0 53 9zM932 408l37 172q-45 -32 -115 -45q-27 -7 -84 -15
l-39 -4l-39 -6l-37 -4q-136 -18 -210.5 -47.5t-114.5 -79.5q-51 -63 -51 -137q0 -79 55.5 -122.5t157.5 -43.5q105 0 198.5 42t157 118t84.5 172zM1112 1477l-45 -211h-131l45 211h131zM784 1477l-45 -211h-131l45 211h131z" />
    <glyph glyph-name="aring" unicode="&#xe5;" 
d="M1116 109l-20 -101q-52 -16 -109 -16q-108 0 -108 100q0 35 12 94q-98 -114 -207 -165.5t-248 -51.5q-94 0 -159.5 27t-99.5 80.5t-34 126.5q0 94 51 181t134 134q103 57 243 76q9 2 11 3t12.5 2t73 7t137.5 12q81 8 125.5 30.5t64 68t19.5 121.5q0 70 -63.5 109.5
t-176.5 39.5q-92 0 -161 -26.5t-115.5 -82.5t-73.5 -143h-123q44 173 176.5 267t331.5 94q106 0 182 -26t116 -75.5t40 -117.5q0 -45 -19 -134q0 -4 -71 -331q-26 -124 -43 -215q-8 -37 -8 -50q0 -47 57 -47q25 0 53 9zM932 408l37 172q-45 -32 -115 -45q-27 -7 -84 -15
l-39 -4l-39 -6l-37 -4q-136 -18 -210.5 -47.5t-114.5 -79.5q-51 -63 -51 -137q0 -79 55.5 -122.5t157.5 -43.5q105 0 198.5 42t157 118t84.5 172zM915 1622q77 0 127 -48.5t50 -121.5q0 -70 -38.5 -133.5t-102 -101t-134.5 -37.5q-72 0 -123 49.5t-51 120.5q0 69 38 132.5
t101.5 101.5t132.5 38zM897 1536q-43 0 -82 -23t-62.5 -62t-23.5 -81q0 -43 30.5 -73.5t76.5 -30.5q69 0 119.5 49.5t50.5 116.5q0 45 -31 74.5t-78 29.5z" />
    <glyph glyph-name="ae" unicode="&#xe6;" horiz-adv-x="1821" 
d="M1673 348h125q-38 -89 -92 -159t-124 -119.5t-151.5 -75t-170.5 -25.5q-144 0 -229 68t-103 201q-76 -123 -215.5 -198t-296.5 -75q-132 0 -207.5 66t-75.5 180q0 69 26 134.5t77 117.5q62 65 148 96.5t247 46.5q123 11 211 27q78 12 110.5 57t32.5 139q0 158 -229 158
q-95 0 -164.5 -27t-116.5 -84.5t-72 -142.5h-124q28 88 74 156.5t109.5 114.5t144 69t175.5 23q91 0 161.5 -22.5t105.5 -63.5q22 -25 31 -53.5t12 -79.5q150 219 413 219q114 0 197 -44t127.5 -127.5t44.5 -193.5q0 -96 -33 -231h-801q-9 -45 -13.5 -80.5t-4.5 -71.5
q0 -123 74.5 -196.5t199.5 -73.5q88 0 157 29.5t123.5 90t96.5 150.5zM1063 608h672q12 67 12 113q0 76 -33.5 137.5t-93 95t-137.5 33.5q-94 0 -181 -45t-145 -125q-53 -68 -94 -209zM909 451l29 127q-37 -27 -73.5 -38t-127.5 -18q-103 -9 -215 -26q-120 -21 -187 -89.5
t-67 -170.5q0 -81 53 -125.5t152 -44.5q170 0 305 124q53 50 83 109.5t48 151.5z" />
    <glyph glyph-name="ccedilla" unicode="&#xe7;" 
d="M575 -31l-81 -84q54 9 75 9q63 0 99.5 -28.5t36.5 -78.5q0 -57 -34.5 -104.5t-96 -75t-134.5 -27.5q-81 0 -180 41l41 64q67 -33 139 -33q66 0 107 30.5t41 79.5q0 29 -25.5 47.5t-66.5 18.5t-90 -18l-25 30l127 133q-94 9 -166.5 60.5t-112 139t-39.5 196.5
q0 87 23 179.5t64.5 179t93.5 149.5q59 71 131.5 119.5t157 74t169.5 25.5q110 0 192 -37.5t126.5 -108t44.5 -162.5q0 -9 -4 -59h-129v19q0 114 -65 177.5t-185 63.5q-105 0 -197 -49t-159 -143q-59 -81 -94 -192t-35 -220q0 -96 33 -165t95.5 -105.5t147.5 -36.5
q134 0 238 80t155 223h129q-47 -131 -125.5 -223t-187 -140.5t-234.5 -48.5z" />
    <glyph glyph-name="egrave" unicode="&#xe8;" 
d="M985 350h125q-75 -182 -212.5 -281.5t-315.5 -99.5q-124 0 -213.5 46t-136 134t-46.5 211q0 146 50 281t138 238t200.5 160t236.5 57q85 0 153 -27t116.5 -78.5t74 -122.5t25.5 -159q0 -56 -6.5 -102.5t-20.5 -106.5h-823q-17 -97 -17 -142q0 -49 17.5 -99.5t46.5 -88.5
q68 -92 229 -92q125 0 222 70t157 202zM352 608h695q10 68 10 107q0 120 -76 196t-195 76q-149 0 -260.5 -97t-173.5 -282zM780 1518l152 -293h-103l-213 293h164z" />
    <glyph glyph-name="eacute" unicode="&#xe9;" 
d="M985 350h125q-75 -182 -212.5 -281.5t-315.5 -99.5q-124 0 -213.5 46t-136 134t-46.5 211q0 146 50 281t138 238t200.5 160t236.5 57q85 0 153 -27t116.5 -78.5t74 -122.5t25.5 -159q0 -56 -6.5 -102.5t-20.5 -106.5h-823q-17 -97 -17 -142q0 -49 17.5 -99.5t46.5 -88.5
q68 -92 229 -92q125 0 222 70t157 202zM352 608h695q10 68 10 107q0 120 -76 196t-195 76q-149 0 -260.5 -97t-173.5 -282zM1161 1518l-319 -293h-105l269 293h155z" />
    <glyph glyph-name="ecircumflex" unicode="&#xea;" 
d="M985 350h125q-75 -182 -212.5 -281.5t-315.5 -99.5q-124 0 -213.5 46t-136 134t-46.5 211q0 146 50 281t138 238t200.5 160t236.5 57q85 0 153 -27t116.5 -78.5t74 -122.5t25.5 -159q0 -56 -6.5 -102.5t-20.5 -106.5h-823q-17 -97 -17 -142q0 -49 17.5 -99.5t46.5 -88.5
q68 -92 229 -92q125 0 222 70t157 202zM352 608h695q10 68 10 107q0 120 -76 196t-195 76q-149 0 -260.5 -97t-173.5 -282zM1112 1225h-127l-115 217l-208 -217h-115l278 293h131z" />
    <glyph glyph-name="edieresis" unicode="&#xeb;" 
d="M985 350h125q-75 -182 -212.5 -281.5t-315.5 -99.5q-124 0 -213.5 46t-136 134t-46.5 211q0 146 50 281t138 238t200.5 160t236.5 57q85 0 153 -27t116.5 -78.5t74 -122.5t25.5 -159q0 -56 -6.5 -102.5t-20.5 -106.5h-823q-17 -97 -17 -142q0 -49 17.5 -99.5t46.5 -88.5
q68 -92 229 -92q125 0 222 70t157 202zM352 608h695q10 68 10 107q0 120 -76 196t-195 76q-149 0 -260.5 -97t-173.5 -282zM1114 1477l-45 -211h-131l45 211h131zM786 1477l-45 -211h-131l45 211h131z" />
    <glyph glyph-name="igrave" unicode="&#xec;" horiz-adv-x="455" 
d="M518 1065l-225 -1065h-129l227 1065h127zM436 1518l152 -293h-103l-213 293h164z" />
    <glyph glyph-name="iacute" unicode="&#xed;" horiz-adv-x="455" 
d="M518 1065l-225 -1065h-129l227 1065h127zM817 1518l-319 -293h-105l269 293h155z" />
    <glyph glyph-name="icircumflex" unicode="&#xee;" horiz-adv-x="455" 
d="M518 1065l-225 -1065h-129l227 1065h127zM770 1225h-127l-115 217l-209 -217h-114l278 293h131z" />
    <glyph glyph-name="idieresis" unicode="&#xef;" horiz-adv-x="455" 
d="M518 1065l-225 -1065h-129l227 1065h127zM733 1477l-45 -211h-131l45 211h131zM479 1477l-45 -211h-131l45 211h131z" />
    <glyph glyph-name="eth" unicode="&#xf0;" 
d="M688 1237l197 78l-58 170l88 39l68 -172l203 80l14 -68l-190 -76l118 -291q64 -158 64 -301q0 -130 -46.5 -265.5t-125.5 -237.5q-85 -107 -202.5 -165.5t-250.5 -58.5q-120 0 -209.5 48t-136.5 137.5t-47 214.5q0 194 84 361.5t227 266.5t310 99q81 0 170 -31l-62 182
l-198 -78zM784 987q-96 0 -184 -46t-154 -129t-102.5 -194t-36.5 -237q0 -93 33.5 -162t97 -105t152.5 -36q104 0 193.5 51.5t156.5 149.5q56 83 87.5 189t31.5 214q0 91 -33 160.5t-95.5 107t-146.5 37.5z" />
    <glyph glyph-name="ntilde" unicode="&#xf1;" 
d="M496 1065l-43 -197q92 121 187.5 174.5t221.5 53.5q66 0 120 -17t94 -49.5t60.5 -75t20.5 -96.5q0 -33 -5 -74t-17 -100l-146 -684h-129l137 643q23 100 23 158q0 87 -55.5 134.5t-151.5 47.5q-62 0 -121.5 -19.5t-109.5 -56.5t-86 -90q-26 -35 -43.5 -71.5t-33.5 -90
t-30 -118.5l-113 -537h-129l228 1065h121zM1098 1477h78q-80 -201 -205 -201q-44 0 -94 29q-6 3 -8 3.5t-17.5 10.5t-56.5 35q-28 18 -64 18q-63 0 -106 -104h-76q36 99 90.5 150.5t120.5 51.5q53 0 114 -40q70 -43 83.5 -49.5t29.5 -6.5q35 0 61 23t50 80z" />
    <glyph glyph-name="ograve" unicode="&#xf2;" 
d="M813 1096q115 0 202 -48t133 -136t46 -205q0 -203 -82.5 -372.5t-226.5 -267.5t-316 -98q-124 0 -213 47t-135.5 136.5t-46.5 214.5q0 133 45.5 266.5t122.5 230.5q185 232 471 232zM786 987q-97 0 -185 -45.5t-154.5 -128.5t-104 -194.5t-37.5 -237.5q0 -70 19.5 -126.5
t57 -96.5t89.5 -60t119 -20q106 0 195 51t155 150q56 81 88.5 188t32.5 215q0 91 -33 160.5t-95.5 107t-146.5 37.5zM780 1518l152 -293h-103l-213 293h164z" />
    <glyph glyph-name="oacute" unicode="&#xf3;" 
d="M813 1096q115 0 202 -48t133 -136t46 -205q0 -203 -82.5 -372.5t-226.5 -267.5t-316 -98q-124 0 -213 47t-135.5 136.5t-46.5 214.5q0 133 45.5 266.5t122.5 230.5q185 232 471 232zM786 987q-97 0 -185 -45.5t-154.5 -128.5t-104 -194.5t-37.5 -237.5q0 -70 19.5 -126.5
t57 -96.5t89.5 -60t119 -20q106 0 195 51t155 150q56 81 88.5 188t32.5 215q0 91 -33 160.5t-95.5 107t-146.5 37.5zM1161 1518l-319 -293h-105l269 293h155z" />
    <glyph glyph-name="ocircumflex" unicode="&#xf4;" 
d="M813 1096q115 0 202 -48t133 -136t46 -205q0 -203 -82.5 -372.5t-226.5 -267.5t-316 -98q-124 0 -213 47t-135.5 136.5t-46.5 214.5q0 133 45.5 266.5t122.5 230.5q185 232 471 232zM786 987q-97 0 -185 -45.5t-154.5 -128.5t-104 -194.5t-37.5 -237.5q0 -70 19.5 -126.5
t57 -96.5t89.5 -60t119 -20q106 0 195 51t155 150q56 81 88.5 188t32.5 215q0 91 -33 160.5t-95.5 107t-146.5 37.5zM1112 1225h-127l-115 217l-208 -217h-115l278 293h131z" />
    <glyph glyph-name="otilde" unicode="&#xf5;" 
d="M813 1096q115 0 202 -48t133 -136t46 -205q0 -203 -82.5 -372.5t-226.5 -267.5t-316 -98q-124 0 -213 47t-135.5 136.5t-46.5 214.5q0 133 45.5 266.5t122.5 230.5q185 232 471 232zM786 987q-97 0 -185 -45.5t-154.5 -128.5t-104 -194.5t-37.5 -237.5q0 -70 19.5 -126.5
t57 -96.5t89.5 -60t119 -20q106 0 195 51t155 150q56 81 88.5 188t32.5 215q0 91 -33 160.5t-95.5 107t-146.5 37.5zM1098 1477h78q-80 -201 -205 -201q-44 0 -94 29q-6 3 -8 3.5t-17.5 10.5t-56.5 35q-28 18 -64 18q-63 0 -106 -104h-76q36 99 90.5 150.5t120.5 51.5
q53 0 114 -40q70 -43 83.5 -49.5t29.5 -6.5q35 0 61 23t50 80z" />
    <glyph glyph-name="odieresis" unicode="&#xf6;" 
d="M813 1096q115 0 202 -48t133 -136t46 -205q0 -203 -82.5 -372.5t-226.5 -267.5t-316 -98q-124 0 -213 47t-135.5 136.5t-46.5 214.5q0 133 45.5 266.5t122.5 230.5q185 232 471 232zM786 987q-97 0 -185 -45.5t-154.5 -128.5t-104 -194.5t-37.5 -237.5q0 -70 19.5 -126.5
t57 -96.5t89.5 -60t119 -20q106 0 195 51t155 150q56 81 88.5 188t32.5 215q0 91 -33 160.5t-95.5 107t-146.5 37.5zM1114 1477l-45 -211h-131l45 211h131zM786 1477l-45 -211h-131l45 211h131z" />
    <glyph glyph-name="divide" unicode="&#xf7;" horiz-adv-x="1352" 
d="M348 764h981l-20 -96h-981zM920 1137q32 0 53.5 -21.5t21.5 -54.5q0 -48 -36.5 -84.5t-84.5 -36.5q-32 0 -53.5 22.5t-21.5 53.5q0 48 36.5 84.5t84.5 36.5zM782 494q19 0 37.5 -10t28.5 -28.5t10 -37.5q0 -48 -36.5 -84.5t-84.5 -36.5q-32 0 -53.5 22.5t-21.5 53.5
q0 48 36.5 84.5t83.5 36.5z" />
    <glyph glyph-name="oslash" unicode="&#xf8;" 
d="M1311 1032l-152 -133q18 -43 26.5 -86.5t8.5 -93.5q0 -101 -23.5 -203t-67.5 -194t-99 -152q-90 -99 -202 -150t-239 -51q-199 0 -309 125l-143 -127l-56 62l154 135q-22 59 -29.5 100.5t-7.5 89.5q0 203 84.5 374.5t229.5 269.5t319 98q205 0 311 -127l139 123z
M1051 803l-697 -619q46 -56 101.5 -81t134.5 -25q106 0 196.5 52t153.5 149q57 84 90 195t33 218q0 55 -12 111zM315 260l701 619q-81 108 -234 108q-133 0 -242.5 -82.5t-173 -226.5t-63.5 -318q0 -53 12 -100z" />
    <glyph glyph-name="ugrave" unicode="&#xf9;" 
d="M1217 1065l-228 -1065h-121l43 199q-79 -112 -183 -171t-226 -59q-132 0 -212.5 69.5t-80.5 184.5q0 53 18 156l148 686h127l-133 -631q-25 -113 -25 -164q0 -56 25 -99t72.5 -66t109.5 -23q88 0 166 41t137 115q42 54 70 120.5t47 159.5l116 547h130zM778 1518l152 -293
h-103l-213 293h164z" />
    <glyph glyph-name="uacute" unicode="&#xfa;" 
d="M1217 1065l-228 -1065h-121l43 199q-79 -112 -183 -171t-226 -59q-132 0 -212.5 69.5t-80.5 184.5q0 53 18 156l148 686h127l-133 -631q-25 -113 -25 -164q0 -56 25 -99t72.5 -66t109.5 -23q88 0 166 41t137 115q42 54 70 120.5t47 159.5l116 547h130zM1159 1518
l-319 -293h-105l269 293h155z" />
    <glyph glyph-name="ucircumflex" unicode="&#xfb;" 
d="M1217 1065l-228 -1065h-121l43 199q-79 -112 -183 -171t-226 -59q-132 0 -212.5 69.5t-80.5 184.5q0 53 18 156l148 686h127l-133 -631q-25 -113 -25 -164q0 -56 25 -99t72.5 -66t109.5 -23q88 0 166 41t137 115q42 54 70 120.5t47 159.5l116 547h130zM1112 1225h-127
l-115 217l-208 -217h-115l278 293h131z" />
    <glyph glyph-name="udieresis" unicode="&#xfc;" 
d="M1217 1065l-228 -1065h-121l43 199q-79 -112 -183 -171t-226 -59q-132 0 -212.5 69.5t-80.5 184.5q0 53 18 156l148 686h127l-133 -631q-25 -113 -25 -164q0 -56 25 -99t72.5 -66t109.5 -23q88 0 166 41t137 115q42 54 70 120.5t47 159.5l116 547h130zM1114 1477
l-45 -211h-131l45 211h131zM786 1477l-45 -211h-131l45 211h131z" />
    <glyph glyph-name="yacute" unicode="&#xfd;" horiz-adv-x="1024" 
d="M1104 1518l-322 -293h-104l268 293h158zM1212 1065l-649 -1106q-119 -203 -172 -264q-85 -101 -229 -101q-43 0 -99 11l25 114q60 -14 90 -14q89 0 150 80q52 65 139 223l-205 1057h139l160 -922l520 922h131z" />
    <glyph glyph-name="thorn" unicode="&#xfe;" horiz-adv-x="1251" 
d="M604 1475l-129 -609q71 110 181.5 170t240.5 60q115 0 199 -46t129 -133t45 -202q0 -93 -22 -191.5t-62.5 -187t-95.5 -154.5q-57 -68 -125.5 -116t-144.5 -72.5t-158 -24.5q-134 0 -218 63t-108 181l-129 -608h-129l397 1870h129zM860 987q-97 0 -184 -46t-152 -128
t-102 -194t-37 -238q0 -141 75.5 -222t205.5 -81q127 0 235.5 81.5t172 221t63.5 305.5q0 92 -33 160.5t-95 104.5t-149 36z" />
    <glyph glyph-name="ydieresis" unicode="&#xff;" horiz-adv-x="1024" 
d="M1212 1065l-649 -1106q-119 -203 -172 -264q-85 -101 -229 -101q-43 0 -99 11l25 114q60 -14 90 -14q89 0 150 80q52 65 139 223l-205 1057h139l160 -922l520 922h131zM1055 1477l-45 -211h-131l45 211h131zM727 1477l-45 -211h-131l45 211h131z" />
    <glyph glyph-name="dotlessi" unicode="&#x131;" horiz-adv-x="455" 
d="M518 1065l-225 -1065h-129l227 1065h127z" />
    <glyph glyph-name="Lslash" unicode="&#x141;" 
d="M322 735l157 740h139l-139 -652l398 258l-29 -139l-397 -260l-121 -561h792l-26 -121h-930l127 596l-170 -113l29 140z" />
    <glyph glyph-name="lslash" unicode="&#x142;" horiz-adv-x="455" 
d="M342 850l133 625h129l-117 -543l162 104l-26 -129l-162 -104l-170 -803h-129l153 723l-159 -107l26 129z" />
    <glyph glyph-name="OE" unicode="&#x152;" horiz-adv-x="2048" 
d="M2294 1475l-25 -121h-723l-112 -531h645l-27 -121h-643l-125 -581h723l-27 -121h-852l33 150q-50 -45 -106 -80.5t-114.5 -59t-117.5 -34.5t-121 -11q-149 0 -259.5 66.5t-169 191.5t-58.5 289q0 182 68.5 375t181.5 327q117 142 266 218.5t313 76.5q143 0 246 -51
q33 -17 46.5 -28t60.5 -60l20 -16l25 121h852zM1196 354l164 774q4 30 4 37q0 32 -21.5 70.5t-58.5 69.5q-96 84 -252 84q-132 0 -254 -64.5t-219 -187.5q-92 -118 -147.5 -284.5t-55.5 -322.5q0 -136 47 -236.5t133.5 -154t204.5 -53.5q212 0 365 135q74 65 90 133z" />
    <glyph glyph-name="oe" unicode="&#x153;" horiz-adv-x="1933" 
d="M1790 346h123q-55 -120 -136 -203.5t-185.5 -128.5t-225.5 -45q-163 0 -249.5 66.5t-104.5 204.5q-71 -130 -192 -200.5t-273 -70.5q-117 0 -203 47t-132 133t-46 201q0 134 44.5 271.5t119.5 236.5q87 116 207.5 177t261.5 61q298 0 344 -258q90 134 200.5 196t260.5 62
q120 0 205.5 -44t130.5 -127t45 -200q0 -53 -5.5 -101.5t-21.5 -123.5h-828q-20 -82 -20 -142q0 -84 35.5 -148t99.5 -99t150 -35t166.5 36t142.5 103q39 45 86 131zM1149 608h702q9 69 9 107q0 83 -34.5 144t-100 94.5t-148.5 33.5q-98 0 -186.5 -45.5t-149.5 -128.5
q-33 -44 -51 -86t-41 -119zM778 987q-232 0 -366 -215q-51 -79 -82 -190t-31 -211q0 -89 34 -156t98 -102t151 -35q230 0 362 233q47 85 73.5 188.5t26.5 209.5q0 133 -69 205.5t-197 72.5z" />
    <glyph glyph-name="Scaron" unicode="&#x160;" horiz-adv-x="1251" 
d="M678 1890h129l149 -219l244 219h117l-313 -293h-136zM1335 1051h-135q6 54 6 82q0 126 -78.5 193t-226.5 67q-176 0 -289.5 -94.5t-113.5 -243.5q0 -55 26 -93.5t80 -66.5q58 -28 125 -43l27 -8l28 -6l29 -9q117 -28 191 -51q251 -78 251 -291q0 -72 -24 -143.5
t-69.5 -135.5t-108.5 -114q-166 -129 -422 -129q-221 0 -339 99t-118 284q0 66 16 139h138q-13 -68 -13 -120q0 -136 91 -209.5t258 -73.5q219 0 340 121q51 51 79.5 117.5t28.5 128.5q0 69 -44.5 117.5t-139.5 80.5q-46 16 -127 39q-45 13 -60 17l-30 8
q-126 34 -173.5 52.5t-91.5 49.5q-94 67 -94 199q0 101 49 200.5t134 169.5q158 125 399 125q129 0 222 -40.5t142.5 -118.5t49.5 -185q0 -56 -13 -114z" />
    <glyph glyph-name="scaron" unicode="&#x161;" horiz-adv-x="1024" 
d="M1055 756h-127q4 48 4 63q0 80 -60.5 124t-162.5 44q-131 0 -209 -59t-78 -158q0 -41 20 -66t73 -45.5t163 -48.5q147 -37 215 -73q106 -62 106 -187q0 -74 -39 -146.5t-108 -127.5q-135 -107 -340 -107q-160 0 -257 74t-97 197q0 36 10 108h127q-6 -43 -6 -78
q0 -89 66 -140.5t182 -51.5q93 0 167.5 31.5t117 87.5t42.5 127q0 59 -51 95t-190 73q-175 46 -226 69q-110 54 -110 178q0 58 27.5 120t72.5 110q124 127 346 127q103 0 177.5 -30.5t113.5 -87.5t39 -132q0 -26 -8 -90zM553 1518h127l115 -220l209 220h114l-278 -293h-129z
" />
    <glyph glyph-name="Ydieresis" unicode="&#x178;" horiz-adv-x="1251" 
d="M1284 1835l-43 -207h-139l43 207h139zM885 1835l-43 -207h-140l46 207h137zM1538 1475l-715 -865l-129 -610h-139l131 610l-348 865h147l299 -762l607 762h147z" />
    <glyph glyph-name="Zcaron" unicode="&#x17d;" horiz-adv-x="1251" 
d="M700 1890h131l148 -219l246 219h116l-315 -293h-133zM1479 1475l-25 -123l-1210 -1231h968l-26 -121h-1123l27 125l1208 1229h-880l24 121h1037z" />
    <glyph glyph-name="zcaron" unicode="&#x17e;" horiz-adv-x="1024" 
d="M1149 1065l-21 -92l-895 -867h746l-23 -106h-888l22 104l887 852h-660l23 109h809zM545 1518h127l114 -220l209 220h115l-279 -293h-129z" />
    <glyph glyph-name="florin" unicode="&#x192;" 
d="M1147 1008l-41 -103h-229l-351 -895q-48 -124 -89.5 -196t-94.5 -119q-51 -47 -109 -68.5t-135 -21.5q-47 0 -110 8l43 113q57 -7 84 -7q51 0 88.5 15.5t68 49t61.5 93t68 152.5l347 876h-209l41 103h206l101 254q65 171 135 241q104 107 274 107q61 0 121 -11l-47 -110
q-55 8 -96 8q-90 0 -148.5 -52.5t-109.5 -182.5l-101 -254h232z" />
    <glyph glyph-name="circumflex" unicode="&#x2c6;" horiz-adv-x="682" 
d="M883 1225h-127l-115 217l-209 -217h-115l279 293h131z" />
    <glyph glyph-name="caron" unicode="&#x2c7;" horiz-adv-x="682" 
d="M381 1518h127l115 -220l208 220h115l-278 -293h-129z" />
    <glyph glyph-name="breve" unicode="&#x2d8;" horiz-adv-x="682" 
d="M848 1503h78q-44 -128 -128 -196t-196 -68q-97 0 -155 55t-58 146q0 15 4 63h80v-12q0 -75 41.5 -116.5t116.5 -41.5q147 0 217 170z" />
    <glyph glyph-name="dotaccent" unicode="&#x2d9;" horiz-adv-x="682" 
d="M721 1477l-45 -211h-131l45 211h131z" />
    <glyph glyph-name="ring" unicode="&#x2da;" horiz-adv-x="682" 
d="M686 1622q75 0 125.5 -48.5t50.5 -121.5q0 -70 -38 -133t-101 -101t-135 -38q-73 0 -123.5 49.5t-50.5 120.5q0 69 38 132.5t101.5 101.5t132.5 38zM668 1536q-43 0 -82 -23t-62.5 -62t-23.5 -81q0 -43 30.5 -73.5t75.5 -30.5q69 0 119.5 49.5t50.5 116.5
q0 45 -30.5 74.5t-77.5 29.5z" />
    <glyph glyph-name="ogonek" unicode="&#x2db;" horiz-adv-x="682" 
d="M430 0h94q-85 -56 -124.5 -105.5t-39.5 -103.5q0 -38 34.5 -63t88.5 -25q41 0 101 16l-15 -75q-67 -23 -127 -23q-81 0 -130.5 37.5t-49.5 99.5q0 66 40 123.5t128 118.5z" />
    <glyph glyph-name="tilde" unicode="&#x2dc;" horiz-adv-x="682" 
d="M868 1477h78q-78 -201 -205 -201q-43 0 -94 29q-5 3 -7.5 3.5t-18 10.5t-56.5 35q-27 18 -63 18q-63 0 -107 -104h-76q35 97 90 149.5t121 52.5q54 0 115 -40q66 -42 81 -49t32 -7q35 0 60.5 23.5t49.5 79.5z" />
    <glyph glyph-name="hungarumlaut" unicode="&#x2dd;" horiz-adv-x="682" 
d="M1016 1518l-248 -293h-96l192 293h152zM737 1518l-248 -293h-96l195 293h149z" />
    <glyph glyph-name="emdash" unicode="&#x2013;" horiz-adv-x="1024" 
d="M1153 604l-25 -119h-1024l25 119h1024z" />
    <glyph glyph-name="endash" unicode="&#x2014;" horiz-adv-x="2048" 
d="M2177 604l-25 -119h-2048l25 119h2048z" />
    <glyph glyph-name="quoteleft" unicode="&#x2018;" horiz-adv-x="455" 
d="M354 995l35 168q21 93 46 147.5t69 100.5q59 62 139 86l-20 -88q-55 -28 -85 -72.5t-49 -126.5h60l-45 -215h-150z" />
    <glyph glyph-name="quoteright" unicode="&#x2019;" horiz-adv-x="455" 
d="M625 1475l-35 -168q-30 -141 -90 -221t-162 -113l18 88q58 32 88 75t48 124h-62l45 215h150z" />
    <glyph glyph-name="quotesinglbase" unicode="&#x201a;" horiz-adv-x="455" 
d="M358 215l-36 -168q-30 -142 -91.5 -222.5t-160.5 -111.5l18 88q58 32 87.5 76.5t47.5 122.5h-61l47 215h149z" />
    <glyph glyph-name="quotedblleft" unicode="&#x201c;" horiz-adv-x="797" 
d="M688 1004l39 178q27 123 88 203.5t152 111.5l-17 -86q-41 -24 -65 -49t-40 -61t-28 -89h57l-43 -208h-143zM375 1004l37 178q53 249 241 315l-18 -86q-58 -33 -86 -75.5t-47 -123.5h59l-45 -208h-141z" />
    <glyph glyph-name="quotedblright" unicode="&#x201d;" horiz-adv-x="797" 
d="M635 1475l-37 -179q-54 -247 -242 -315l19 86q59 35 85.5 74.5t47.5 124.5h-59l45 209h141zM948 1475l-37 -179q-52 -247 -241 -315l18 86q59 34 85 72.5t48 126.5h-59l45 209h141z" />
    <glyph glyph-name="quotedblbase" unicode="&#x201e;" horiz-adv-x="797" 
d="M365 209l-37 -178q-54 -248 -242 -316l18 86q59 35 86 74t48 125h-60l45 209h142zM678 209l-37 -178q-54 -248 -242 -316l19 86q59 34 85.5 74t47.5 125h-59l45 209h141z" />
    <glyph glyph-name="dagger" unicode="&#x2020;" 
d="M1280 1020l-25 -111h-436l-276 -1304h-121l276 1304h-430l23 111h430l98 455h121l-96 -455h436z" />
    <glyph glyph-name="daggerdbl" unicode="&#x2021;" 
d="M1282 1036l-22 -110h-437l-157 -744h434l-23 -110h-434l-100 -467h-121l98 467h-430l23 110h432l157 744h-430l23 110h432l92 439h121l-92 -439h434z" />
    <glyph glyph-name="bullet" unicode="&#x2022;" horiz-adv-x="1024" 
d="M741 1061q72 0 126.5 -32t85 -87.5t30.5 -124.5q0 -94 -53.5 -181.5t-141.5 -140.5t-184 -53q-103 0 -171 70.5t-68 175.5q0 95 53 181t140.5 139t182.5 53z" />
    <glyph glyph-name="ellipsis" unicode="&#x2026;" horiz-adv-x="2048" 
d="M416 0h-150l47 221h150zM1098 0h-150l47 221h150zM1780 0h-150l47 221h150z" />
    <glyph glyph-name="perthousand" unicode="&#x2030;" horiz-adv-x="2048" 
d="M1176 676q110 0 172.5 -60t62.5 -167q0 -53 -13.5 -117t-37 -119t-55.5 -98q-104 -138 -279 -138q-115 0 -177.5 58.5t-62.5 165.5q0 56 13.5 121t38.5 121.5t55 95.5q34 45 77 75t94.5 46t111.5 16zM1157 590q-58 0 -108 -28t-80 -77q-33 -53 -53.5 -128.5t-20.5 -139.5
q0 -74 37.5 -114t109.5 -40q119 0 185 105q32 52 52.5 125.5t20.5 140.5q0 48 -16.5 83t-48.5 54t-78 19zM1868 678q108 0 171.5 -58.5t63.5 -162.5q0 -55 -12.5 -117t-35.5 -117t-54 -100q-109 -146 -285 -146q-75 0 -129.5 26t-82 75.5t-27.5 122.5q0 91 30.5 186.5
t77.5 155.5q32 42 76.5 72.5t96.5 46.5t110 16zM1845 592q-58 0 -109 -31t-85 -86q-28 -48 -48 -119.5t-20 -132.5q0 -77 39 -118.5t111 -41.5q68 0 121 39.5t88 114.5q21 46 35 109t14 110q0 75 -38 115.5t-108 40.5zM641 1466q111 0 173.5 -59t62.5 -166q0 -94 -31 -187
t-86 -159q-104 -131 -273 -131q-112 0 -172.5 59.5t-60.5 171.5q0 88 27.5 176t74.5 154q50 68 123 104.5t162 36.5zM621 1380q-55 0 -102.5 -27t-82.5 -81q-33 -56 -53.5 -127.5t-20.5 -136.5q0 -75 37.5 -115.5t106.5 -40.5q122 0 188 109q33 53 52.5 122.5t19.5 137.5
q0 49 -16.5 84.5t-50 55t-78.5 19.5zM1430 1430l-1108 -1430h-107l1106 1430h109z" />
    <glyph glyph-name="guilsinglleft" unicode="&#x2039;" horiz-adv-x="797" 
d="M569 223l-219 258l27 127l330 260l-29 -135l-234 -188l154 -187z" />
    <glyph glyph-name="guilsinglright" unicode="&#x203a;" horiz-adv-x="797" 
d="M461 868l219 -258l-29 -127l-327 -260l28 135l232 187l-152 186z" />
    <glyph glyph-name="fraction" unicode="&#x2044;" horiz-adv-x="342" 
d="M961 1448l-1174 -1448h-98l1177 1448h95z" />
    <glyph glyph-name="trademark" unicode="&#x2122;" horiz-adv-x="1925" 
d="M1128 1475l-16 -82h-332l-162 -758h-96l162 758h-330l19 82h755zM2073 1475l-181 -840h-92l152 715l-441 -715h-84l-143 708l-151 -708h-93l179 840h124l150 -730l453 730h127z" />
    <glyph glyph-name="minus" unicode="&#x2212;" horiz-adv-x="1352" 
d="M348 764h981l-20 -96h-981z" />
    <glyph glyph-name="periodcentered" unicode="&#x2219;" horiz-adv-x="569" 
d="M459 817q34 0 57 -23t23 -55q0 -49 -38 -87t-87 -38q-32 0 -55 23t-23 55q0 31 17.5 60.5t46 47t59.5 17.5z" />
    <glyph glyph-name="fi" unicode="&#xf001;" horiz-adv-x="1024" 
d="M825 1479l-22 -111q-53 6 -76 6q-93 0 -127 -63q-24 -44 -45 -140l-23 -106h183l-23 -109h-182l-203 -956h-129l203 956h-152l23 109h154l18 92q23 102 39.5 146.5t44.5 80.5q44 53 99.5 77t131.5 24q35 0 86 -6zM1204 1475l-45 -209h-129l45 209h129zM1116 1065
l-225 -1065h-129l227 1065h127z" />
    <glyph glyph-name="fl" unicode="&#xf002;" horiz-adv-x="1024" 
d="M825 1479l-22 -111q-53 6 -76 6q-93 0 -127 -63q-24 -44 -45 -140l-23 -106h183l-23 -109h-182l-203 -956h-129l203 956h-152l23 109h154l18 92q23 102 39.5 146.5t44.5 80.5q44 53 99.5 77t131.5 24q35 0 86 -6zM1198 1475l-313 -1475h-129l313 1475h129z" />
    </font>
</defs>
</svg>
